<svg width="205" height="41" viewBox="0 0 205 41" fill="none" xmlns="http://www.w3.org/2000/svg">
<g filter="url(#filter0_d_1604_444)">
<path d="M12.4647 7.18462C3.606 18.9425 1.83429 39.4786 12.7869 30.7004M12.7869 17.8956C16.4108 5.49342 45.9499 12.2582 43.7117 4.84912C41.9783 -0.888979 14.4732 1.52386 5.53881 4.34435" stroke="#FF9113" stroke-width="2.57708"/>
<path d="M10.693 20.5532C13.8338 21.3585 16.4109 23.5329 17.8605 31.5057C22.773 26.4321 23.5784 20.07 21.8872 14.1105" stroke="#FF9113" stroke-width="2.57708"/>
<mask id="mask0_1604_444" style="mask-type:alpha" maskUnits="userSpaceOnUse" x="18" y="9" width="26" height="26">
<rect width="25.6097" height="24.3211" transform="matrix(1 0 0 -1 18.2631 34.1633)" fill="#F5F5F5"/>
</mask>
<g mask="url(#mask0_1604_444)">
<path d="M20.9207 34.9687C28.7325 25.949 26.3165 22.7276 28.4103 18.0567C30.6702 13.0154 36.8927 11.9624 39.685 14.7547C45.9667 21.0364 30.7458 26.8306 30.7458 30.8573C30.7458 33.7493 35.3604 33.8384 39.8972 28.9287" stroke="#FF9113" stroke-width="2.57708"/>
</g>
<path d="M52.8079 33.4275C52.6189 33.4275 52.4557 33.4018 52.3183 33.3502C52.198 33.3159 52.1379 33.2386 52.1379 33.1183C52.1379 32.895 52.387 32.7317 52.8852 32.6287C53.5381 32.5084 54.0019 32.3194 54.2768 32.0617C54.5689 31.804 54.7149 31.3745 54.7149 30.7732V19.666C54.7149 18.9444 54.6119 18.4032 54.4057 18.0424C54.2167 17.6816 53.8044 17.4411 53.1687 17.3208C52.8938 17.2693 52.6962 17.2006 52.576 17.1147C52.4557 17.0288 52.3956 16.9257 52.3956 16.8054C52.3956 16.7023 52.4557 16.625 52.576 16.5735C52.7134 16.5048 52.8766 16.4704 53.0656 16.4704C53.5123 16.4704 53.8817 16.479 54.1738 16.4962C54.4658 16.4962 54.7493 16.5048 55.0242 16.5219C55.2991 16.5391 55.6083 16.5477 55.9519 16.5477C56.3127 16.5477 56.6649 16.5305 57.0085 16.4962C57.3521 16.4618 57.6872 16.4274 58.0136 16.3931C58.3572 16.3587 58.7008 16.3415 59.0444 16.3415C61.0545 16.3415 62.6609 16.7625 63.8636 17.6043C65.0662 18.4461 65.6675 19.6058 65.6675 21.0834C65.6675 22.1314 65.4528 23.1021 65.0232 23.9955C64.6109 24.8888 63.9666 25.6104 63.0904 26.1602C62.2142 26.6928 61.0975 26.9591 59.7402 26.9591C59.3451 26.9591 59.0358 26.899 58.8125 26.7787C58.6063 26.6584 58.5032 26.5382 58.5032 26.4179C58.5032 26.3148 58.5548 26.2289 58.6579 26.1602C58.7609 26.0743 58.8554 26.0313 58.9413 26.0313C59.0616 26.0313 59.1991 26.0485 59.3537 26.0829C59.5255 26.1001 59.766 26.1087 60.0753 26.1087C61.003 26.1087 61.6988 25.6877 62.1627 24.8459C62.6437 24.004 62.8843 22.8615 62.8843 21.4184C62.8843 19.9752 62.5235 18.9186 61.8019 18.2486C61.0975 17.5614 60.1783 17.2177 59.0444 17.2177C58.5634 17.2177 58.1768 17.3122 57.8847 17.5012C57.6099 17.673 57.4724 17.9651 57.4724 18.3774L57.4466 30.567C57.4466 31.1511 57.5841 31.615 57.859 31.9586C58.1339 32.285 58.6063 32.5084 59.2764 32.6287C59.5169 32.6802 59.6973 32.7403 59.8175 32.809C59.955 32.8778 60.0237 32.9809 60.0237 33.1183C60.0237 33.2214 59.9636 33.2987 59.8433 33.3502C59.7231 33.4018 59.5598 33.4275 59.3537 33.4275C58.9242 33.4275 58.5376 33.4104 58.194 33.376C57.8676 33.3588 57.5497 33.3416 57.2405 33.3245C56.9484 33.2901 56.6392 33.2729 56.3127 33.2729C55.9004 33.2729 55.5052 33.2901 55.1273 33.3245C54.7665 33.3416 54.3971 33.3588 54.0191 33.376C53.6583 33.4104 53.2546 33.4275 52.8079 33.4275ZM66.912 33.4018C66.7917 33.4018 66.6714 33.3846 66.5512 33.3502C66.4481 33.3159 66.3965 33.2386 66.3965 33.1183C66.3965 32.9809 66.4567 32.8864 66.5769 32.8348C66.6972 32.7661 66.8346 32.6974 66.9893 32.6287C67.247 32.5428 67.4875 32.4483 67.7108 32.3452C67.9342 32.2421 68.0459 32.0102 68.0459 31.6494V18.8928C68.0459 18.3946 67.96 17.9823 67.7882 17.6558C67.6335 17.3122 67.3415 17.0975 66.912 17.0116C66.7745 16.9772 66.7058 16.857 66.7058 16.6508C66.7058 16.4618 66.7659 16.3501 66.8862 16.3158C67.3329 16.2299 67.7538 16.1182 68.149 15.9807C68.5441 15.8433 68.9135 15.7059 69.2571 15.5684C69.6007 15.431 69.91 15.3107 70.1848 15.2076C70.2879 15.1733 70.3652 15.1561 70.4168 15.1561C70.4683 15.1561 70.5027 15.1819 70.5199 15.2334C70.5542 15.2849 70.5714 15.3365 70.5714 15.388C70.5714 15.5255 70.5456 15.8175 70.4941 16.2642C70.4425 16.7109 70.4168 17.381 70.4168 18.2743V31.6494C70.4168 31.993 70.5284 32.2249 70.7518 32.3452C70.9751 32.4483 71.2157 32.5428 71.4734 32.6287C71.628 32.6802 71.7654 32.7403 71.8857 32.809C72.006 32.8778 72.0661 32.9809 72.0661 33.1183C72.0661 33.2214 72.006 33.2901 71.8857 33.3245C71.7826 33.3588 71.671 33.376 71.5507 33.376C71.2243 33.376 70.9408 33.3674 70.7003 33.3502C70.4597 33.3331 70.2278 33.3159 70.0044 33.2987C69.7811 33.2815 69.5148 33.2729 69.2056 33.2729C68.9135 33.2729 68.6558 33.2815 68.4324 33.2987C68.2091 33.3159 67.9857 33.3331 67.7624 33.3502C67.539 33.3846 67.2556 33.4018 66.912 33.4018ZM75.2581 33.6853C74.8973 33.6853 74.5451 33.565 74.2015 33.3245C73.8578 33.1011 73.5744 32.8176 73.351 32.474C73.1277 32.1132 73.016 31.761 73.016 31.4174C73.016 30.8505 73.1706 30.3952 73.4799 30.0516C73.8063 29.708 74.3045 29.3987 74.9746 29.1238L77.4743 28.0672C77.8179 27.9298 78.0241 27.8095 78.0928 27.7064C78.1616 27.5862 78.2045 27.3542 78.2217 27.0106L78.2732 25.4386C78.2904 24.9747 78.1787 24.5882 77.9382 24.2789C77.6977 23.9697 77.3455 23.8151 76.8816 23.8151C76.6411 23.8151 76.392 23.8666 76.1343 23.9697C75.8937 24.0556 75.6962 24.1587 75.5415 24.2789C75.4556 24.3477 75.3955 24.4421 75.3611 24.5624C75.344 24.6827 75.3354 24.8115 75.3354 24.949C75.3354 25.0349 75.3354 25.138 75.3354 25.2582C75.3525 25.3613 75.3611 25.4472 75.3611 25.5159C75.3611 25.619 75.2409 25.7479 75.0003 25.9025C74.777 26.0399 74.5107 26.1688 74.2015 26.289C73.9094 26.4093 73.6603 26.4694 73.4541 26.4694C73.351 26.4694 73.2651 26.4437 73.1964 26.3921C73.1449 26.3234 73.1191 26.2375 73.1191 26.1344C73.1191 25.8595 73.205 25.5761 73.3768 25.284C73.5658 24.9747 73.8407 24.6655 74.2015 24.3562C74.6138 23.9955 75.0605 23.6776 75.5415 23.4027C76.0398 23.1107 76.5208 22.8873 76.9847 22.7327C77.4657 22.5781 77.8867 22.5007 78.2475 22.5007C78.969 22.5007 79.5532 22.7499 79.9999 23.2481C80.4637 23.7292 80.6785 24.3562 80.6441 25.1294L80.5153 30.9536C80.4981 31.3315 80.5754 31.6408 80.7472 31.8813C80.919 32.1218 81.1338 32.2421 81.3915 32.2421C81.7866 32.2421 82.0959 32.139 82.3192 31.9328C82.388 31.8641 82.4481 31.8298 82.4996 31.8298C82.5855 31.8298 82.6543 31.8555 82.7058 31.9071C82.7745 31.9586 82.8089 32.0273 82.8089 32.1132C82.8089 32.3194 82.6886 32.5342 82.4481 32.7575C82.156 33.0496 81.8382 33.2729 81.4946 33.4275C81.1681 33.5994 80.8503 33.6853 80.5411 33.6853C79.682 33.6853 78.9948 33.2214 78.4794 32.2936H78.4021C77.8351 32.7747 77.3025 33.1269 76.8043 33.3502C76.3061 33.5736 75.7906 33.6853 75.2581 33.6853ZM76.5981 32.2936C76.8902 32.2936 77.1307 32.2507 77.3197 32.1648C77.5259 32.0617 77.7063 31.9243 77.8609 31.7524C77.9468 31.6665 78.0069 31.5635 78.0413 31.4432C78.0928 31.3058 78.1272 31.0996 78.1444 30.8247L78.1959 29.3558C78.2131 29.184 78.2045 29.0637 78.1701 28.995C78.1358 28.9091 78.0671 28.8661 77.964 28.8661C77.9296 28.8661 77.8781 28.8747 77.8094 28.8919C77.7406 28.9091 77.6461 28.9434 77.5259 28.995C76.7528 29.287 76.2116 29.5963 75.9023 29.9227C75.5931 30.232 75.4384 30.5756 75.4384 30.9536C75.4384 31.4174 75.5587 31.761 75.7992 31.9844C76.0569 32.1905 76.3232 32.2936 76.5981 32.2936ZM87.6171 33.8656C87.5312 33.8656 87.4367 33.7368 87.3337 33.4791C87.2306 33.2386 87.1447 33.0238 87.076 32.8348C86.9557 32.5428 86.8268 32.2249 86.6894 31.8813C86.5691 31.5377 86.4575 31.2199 86.3544 30.9278C85.9592 29.8798 85.5383 28.8575 85.0916 27.8611C84.6449 26.8646 84.2068 25.8509 83.7773 24.8201C83.6399 24.4765 83.4509 24.1844 83.2103 23.9439C82.987 23.6862 82.7379 23.5144 82.463 23.4285C82.3084 23.3598 82.1881 23.2996 82.1022 23.2481C82.0335 23.1794 81.9991 23.0849 81.9991 22.9646C81.9991 22.8444 82.0678 22.7756 82.2053 22.7585C82.3427 22.7241 82.4544 22.7069 82.5403 22.7069C82.9183 22.7069 83.1932 22.7155 83.365 22.7327C83.554 22.7499 83.7343 22.7756 83.9062 22.81C84.0951 22.8272 84.3443 22.8358 84.6535 22.8358C84.9971 22.8358 85.2634 22.8272 85.4524 22.81C85.6586 22.7756 85.8647 22.7499 86.0709 22.7327C86.2942 22.7155 86.5863 22.7069 86.9471 22.7069C87.033 22.7069 87.1447 22.7241 87.2821 22.7585C87.4196 22.7928 87.4883 22.8615 87.4883 22.9646C87.4883 23.1021 87.4282 23.2051 87.3079 23.2739C87.1876 23.3254 87.0502 23.3855 86.8956 23.4543C86.7238 23.523 86.5863 23.6518 86.4832 23.8408C86.3973 24.0298 86.3544 24.2532 86.3544 24.5109C86.3544 24.6483 86.3544 24.7858 86.3544 24.9232C86.3716 25.0435 86.4059 25.1551 86.4575 25.2582L88.3903 30.2577C88.4074 30.2749 88.416 30.2835 88.416 30.2835C88.4332 30.2835 88.4504 30.2749 88.4676 30.2577L90.2715 25.5675C90.3403 25.4128 90.3832 25.2496 90.4004 25.0778C90.4347 24.8888 90.4519 24.7256 90.4519 24.5882C90.4519 24.2617 90.3918 24.0126 90.2715 23.8408C90.1684 23.669 89.9881 23.5402 89.7303 23.4543C89.5242 23.3855 89.3696 23.3254 89.2665 23.2739C89.1806 23.2051 89.1376 23.1107 89.1376 22.9904C89.1376 22.8701 89.1977 22.7928 89.318 22.7585C89.4383 22.7241 89.5585 22.7069 89.6788 22.7069C89.9709 22.7241 90.2543 22.7499 90.5292 22.7842C90.8213 22.8014 91.1563 22.81 91.5343 22.81C91.9123 22.81 92.1957 22.8014 92.3847 22.7842C92.5737 22.7499 92.8228 22.7241 93.1321 22.7069C93.2695 22.7069 93.3984 22.7241 93.5186 22.7585C93.6389 22.7928 93.699 22.8615 93.699 22.9646C93.699 23.1708 93.5101 23.334 93.1321 23.4543C92.8572 23.5402 92.5737 23.7377 92.2816 24.047C91.9896 24.3562 91.7576 24.7256 91.5858 25.1551L89.5757 30.0773C89.5242 30.1633 89.4469 30.3265 89.3438 30.567C89.2579 30.7903 89.1634 31.0395 89.0603 31.3143C88.9572 31.5721 88.8627 31.804 88.7768 32.0102C88.7081 32.2163 88.6652 32.3366 88.648 32.3709C88.6136 32.4225 88.5535 32.5513 88.4676 32.7575C88.3817 32.9465 88.2872 33.1441 88.1841 33.3502C88.0982 33.5736 88.0123 33.7454 87.9264 33.8656H87.6171ZM94.2944 33.4018C94.1569 33.4018 94.0367 33.376 93.9336 33.3245C93.8305 33.2729 93.779 33.1956 93.779 33.0925C93.779 32.9551 93.8305 32.8606 93.9336 32.809C94.0539 32.7403 94.1999 32.6802 94.3717 32.6287C94.6294 32.5599 94.8699 32.4654 95.0933 32.3452C95.3166 32.2249 95.4283 31.993 95.4283 31.6494V25.9798C95.4283 25.5503 95.3768 25.1895 95.2737 24.8974C95.1878 24.5882 94.9387 24.382 94.5263 24.2789C94.4576 24.2617 94.3975 24.2274 94.3459 24.1758C94.2944 24.1071 94.2686 24.0212 94.2686 23.9181C94.2686 23.6948 94.3459 23.5745 94.5005 23.5573C95.1019 23.4027 95.6431 23.2137 96.1241 22.9904C96.6223 22.767 97.0776 22.5179 97.49 22.243C97.5415 22.2087 97.593 22.1743 97.6446 22.14C97.7133 22.1056 97.7734 22.0884 97.825 22.0884C97.8937 22.0884 97.9366 22.1142 97.9538 22.1657C97.9882 22.2001 98.0054 22.2516 98.0054 22.3204C98.0054 22.4406 97.9796 22.6726 97.9281 23.0162C97.8937 23.3598 97.8765 23.6518 97.8765 23.8924C97.8765 23.9611 97.8765 24.0298 97.8765 24.0985C97.8937 24.1673 97.9109 24.2102 97.9281 24.2274C98.5294 23.6604 99.1479 23.2309 99.7836 22.9388C100.436 22.6468 101.167 22.5007 101.974 22.5007C102.833 22.5007 103.546 22.8358 104.113 23.5058C104.68 24.1758 104.963 25.0435 104.963 26.1087V31.6751C104.963 32.0187 105.075 32.2421 105.298 32.3452C105.539 32.4483 105.788 32.5428 106.046 32.6287C106.183 32.6802 106.312 32.7403 106.432 32.809C106.553 32.8778 106.613 32.9809 106.613 33.1183C106.613 33.2386 106.553 33.3159 106.432 33.3502C106.329 33.3846 106.226 33.4018 106.123 33.4018C105.78 33.4018 105.487 33.3846 105.247 33.3502C105.024 33.3331 104.8 33.3159 104.577 33.2987C104.371 33.2815 104.113 33.2729 103.804 33.2729C103.512 33.2729 103.254 33.2815 103.031 33.2987C102.807 33.3159 102.575 33.3331 102.335 33.3502C102.112 33.3846 101.828 33.4018 101.484 33.4018C101.399 33.4018 101.295 33.3846 101.175 33.3502C101.055 33.3159 100.995 33.2386 100.995 33.1183C100.995 32.9809 101.055 32.8778 101.175 32.809C101.295 32.7403 101.424 32.6802 101.562 32.6287C101.819 32.5428 102.06 32.4483 102.283 32.3452C102.507 32.2421 102.618 32.0187 102.618 31.6751V26.3406C102.618 25.619 102.421 25.0606 102.026 24.6655C101.648 24.2703 101.149 24.0642 100.531 24.047C99.9983 24.047 99.5258 24.1329 99.1135 24.3047C98.7184 24.4593 98.349 24.6741 98.0054 24.949C97.9366 25.0177 97.8851 25.1036 97.8507 25.2067C97.8164 25.3098 97.7992 25.4043 97.7992 25.4902V31.6751C97.7992 32.0187 97.9109 32.2507 98.1342 32.3709C98.3576 32.474 98.5895 32.5599 98.83 32.6287C99.208 32.7489 99.397 32.9035 99.397 33.0925C99.397 33.1956 99.354 33.2729 99.2681 33.3245C99.1822 33.376 99.062 33.4018 98.9073 33.4018C98.5637 33.4018 98.2717 33.3846 98.0311 33.3502C97.8078 33.3331 97.593 33.3159 97.3869 33.2987C97.1979 33.2815 96.9488 33.2729 96.6395 33.2729C96.3475 33.2729 96.0897 33.2815 95.8664 33.2987C95.6431 33.3159 95.4111 33.3331 95.1706 33.3502C94.9301 33.3846 94.638 33.4018 94.2944 33.4018ZM109.86 33.6853C109.5 33.6853 109.147 33.565 108.804 33.3245C108.46 33.1011 108.177 32.8176 107.953 32.474C107.73 32.1132 107.618 31.761 107.618 31.4174C107.618 30.8505 107.773 30.3952 108.082 30.0516C108.409 29.708 108.907 29.3987 109.577 29.1238L112.077 28.0672C112.42 27.9298 112.626 27.8095 112.695 27.7064C112.764 27.5862 112.807 27.3542 112.824 27.0106L112.875 25.4386C112.893 24.9747 112.781 24.5882 112.54 24.2789C112.3 23.9697 111.948 23.8151 111.484 23.8151C111.243 23.8151 110.994 23.8666 110.737 23.9697C110.496 24.0556 110.298 24.1587 110.144 24.2789C110.058 24.3477 109.998 24.4421 109.963 24.5624C109.946 24.6827 109.938 24.8115 109.938 24.949C109.938 25.0349 109.938 25.138 109.938 25.2582C109.955 25.3613 109.963 25.4472 109.963 25.5159C109.963 25.619 109.843 25.7479 109.603 25.9025C109.379 26.0399 109.113 26.1688 108.804 26.289C108.512 26.4093 108.263 26.4694 108.056 26.4694C107.953 26.4694 107.867 26.4437 107.799 26.3921C107.747 26.3234 107.721 26.2375 107.721 26.1344C107.721 25.8595 107.807 25.5761 107.979 25.284C108.168 24.9747 108.443 24.6655 108.804 24.3562C109.216 23.9955 109.663 23.6776 110.144 23.4027C110.642 23.1107 111.123 22.8873 111.587 22.7327C112.068 22.5781 112.489 22.5007 112.85 22.5007C113.571 22.5007 114.155 22.7499 114.602 23.2481C115.066 23.7292 115.281 24.3562 115.246 25.1294L115.118 30.9536C115.1 31.3315 115.178 31.6408 115.349 31.8813C115.521 32.1218 115.736 32.2421 115.994 32.2421C116.389 32.2421 116.698 32.139 116.922 31.9328C116.99 31.8641 117.05 31.8298 117.102 31.8298C117.188 31.8298 117.257 31.8555 117.308 31.9071C117.377 31.9586 117.411 32.0273 117.411 32.1132C117.411 32.3194 117.291 32.5342 117.05 32.7575C116.758 33.0496 116.44 33.2729 116.097 33.4275C115.77 33.5994 115.453 33.6853 115.143 33.6853C114.284 33.6853 113.597 33.2214 113.082 32.2936H113.004C112.437 32.7747 111.905 33.1269 111.407 33.3502C110.908 33.5736 110.393 33.6853 109.86 33.6853ZM111.2 32.2936C111.492 32.2936 111.733 32.2507 111.922 32.1648C112.128 32.0617 112.309 31.9243 112.463 31.7524C112.549 31.6665 112.609 31.5635 112.644 31.4432C112.695 31.3058 112.729 31.0996 112.747 30.8247L112.798 29.3558C112.815 29.184 112.807 29.0637 112.772 28.995C112.738 28.9091 112.669 28.8661 112.566 28.8661C112.532 28.8661 112.48 28.8747 112.412 28.8919C112.343 28.9091 112.248 28.9434 112.128 28.995C111.355 29.287 110.814 29.5963 110.505 29.9227C110.195 30.232 110.041 30.5756 110.041 30.9536C110.041 31.4174 110.161 31.761 110.402 31.9844C110.659 32.1905 110.926 32.2936 111.2 32.2936ZM132.564 33.711C131.327 33.711 130.133 33.5049 128.982 33.0925C127.848 32.6802 126.843 32.0961 125.966 31.3401C125.09 30.5842 124.394 29.6736 123.879 28.6084C123.381 27.5432 123.132 26.3578 123.132 25.0521C123.132 23.8322 123.389 22.6897 123.905 21.6245C124.42 20.5422 125.133 19.6058 126.044 18.8155C126.971 18.008 128.045 17.381 129.265 16.9343C130.485 16.4704 131.808 16.2385 133.234 16.2385C133.869 16.2385 134.436 16.2728 134.935 16.3415C135.433 16.3931 135.914 16.4704 136.378 16.5735C136.842 16.6766 137.34 16.814 137.873 16.9858C138.096 17.0545 138.259 17.149 138.362 17.2693C138.482 17.3895 138.551 17.5699 138.568 17.8105C138.62 18.2572 138.663 18.721 138.697 19.2021C138.749 19.6831 138.783 20.2157 138.8 20.7999C138.8 20.9545 138.732 21.0662 138.594 21.1349C138.474 21.2036 138.336 21.2208 138.182 21.1864C138.027 21.1349 137.924 21.0146 137.873 20.8256C137.718 20.2587 137.538 19.7519 137.331 19.3052C137.125 18.8585 136.825 18.4891 136.429 18.197C136.034 17.8878 135.527 17.6473 134.909 17.4755C134.308 17.3036 133.629 17.2177 132.873 17.2177C131.911 17.2177 131.026 17.4153 130.219 17.8105C129.411 18.2056 128.724 18.7468 128.157 19.434C127.59 20.1041 127.143 20.8686 126.817 21.7276C126.508 22.5867 126.353 23.48 126.353 24.4078C126.353 25.4902 126.499 26.5296 126.791 27.526C127.1 28.5225 127.538 29.4073 128.105 30.1804C128.69 30.9536 129.394 31.5721 130.219 32.0359C131.043 32.4826 131.971 32.706 133.002 32.706C134.239 32.706 135.261 32.4311 136.069 31.8813C136.876 31.3143 137.555 30.5069 138.104 29.4589C138.225 29.2183 138.405 29.0981 138.646 29.0981C138.886 29.0981 139.006 29.2355 139.006 29.5104C139.006 29.6822 138.972 29.9227 138.903 30.232C138.852 30.524 138.774 30.8505 138.671 31.2113C138.568 31.5549 138.465 31.8727 138.362 32.1648C138.259 32.3881 138.165 32.5428 138.079 32.6287C137.993 32.7146 137.83 32.8005 137.589 32.8864C136.936 33.1612 136.163 33.3674 135.27 33.5049C134.393 33.6423 133.491 33.711 132.564 33.711ZM146.067 33.6853C145.087 33.6853 144.194 33.4619 143.386 33.0152C142.596 32.5513 141.969 31.9243 141.505 31.1339C141.041 30.3436 140.809 29.4417 140.809 28.428C140.809 27.6721 140.955 26.9419 141.247 26.2375C141.54 25.5331 141.952 24.8974 142.484 24.3305C143.017 23.7635 143.636 23.3168 144.34 22.9904C145.044 22.6468 145.8 22.475 146.608 22.475C147.621 22.475 148.541 22.7241 149.365 23.2223C150.19 23.7034 150.843 24.3391 151.324 25.1294C151.805 25.9197 152.045 26.7873 152.045 27.7322C152.045 28.763 151.822 29.7337 151.375 30.6443C150.929 31.5549 150.259 32.2936 149.365 32.8606C148.489 33.4104 147.39 33.6853 146.067 33.6853ZM146.608 32.7833C147.106 32.7833 147.553 32.6888 147.948 32.4998C148.343 32.2936 148.652 31.9844 148.876 31.5721C149.082 31.1769 149.219 30.6958 149.288 30.1289C149.374 29.5448 149.417 28.952 149.417 28.3507C149.417 27.4917 149.279 26.6842 149.004 25.9283C148.73 25.1723 148.352 24.5624 147.871 24.0985C147.39 23.6347 146.823 23.4027 146.17 23.4027C145.775 23.4027 145.414 23.4714 145.087 23.6089C144.778 23.7292 144.495 23.9439 144.237 24.2532C143.91 24.6483 143.696 25.1637 143.593 25.7994C143.49 26.4179 143.438 27.0965 143.438 27.8353C143.438 28.66 143.575 29.4503 143.85 30.2062C144.125 30.9621 144.495 31.5806 144.958 32.0617C145.44 32.5428 145.989 32.7833 146.608 32.7833ZM153.644 33.4018C153.49 33.4018 153.361 33.376 153.258 33.3245C153.172 33.2729 153.129 33.1956 153.129 33.0925C153.129 32.9551 153.181 32.8606 153.284 32.809C153.404 32.7403 153.55 32.6802 153.722 32.6287C154.083 32.5428 154.332 32.4225 154.469 32.2679C154.624 32.1132 154.701 31.9071 154.701 31.6494V25.9798C154.701 25.5503 154.641 25.1895 154.521 24.8974C154.4 24.5882 154.143 24.3906 153.748 24.3047C153.679 24.2875 153.61 24.2446 153.541 24.1758C153.49 24.1071 153.464 24.0212 153.464 23.9181C153.464 23.7292 153.55 23.6089 153.722 23.5573C154.203 23.4199 154.718 23.2309 155.268 22.9904C155.818 22.7327 156.264 22.5093 156.608 22.3204C156.711 22.2516 156.806 22.2001 156.892 22.1657C156.977 22.1314 157.038 22.1142 157.072 22.1142C157.192 22.1142 157.252 22.1829 157.252 22.3204C157.252 22.3891 157.244 22.5351 157.227 22.7585C157.227 22.9818 157.218 23.2309 157.201 23.5058C157.184 23.7807 157.175 24.047 157.175 24.3047C157.175 24.3734 157.192 24.4078 157.227 24.4078C157.501 24.0642 157.802 23.7463 158.129 23.4543C158.472 23.1622 158.833 22.9303 159.211 22.7585C159.589 22.5695 159.95 22.475 160.293 22.475C160.74 22.475 161.084 22.5695 161.324 22.7585C161.565 22.9303 161.685 23.1622 161.685 23.4543C161.685 23.6433 161.625 23.8666 161.505 24.1243C161.401 24.3648 161.255 24.5796 161.066 24.7686C160.895 24.9404 160.706 25.0263 160.499 25.0263C160.379 25.0263 160.25 25.0005 160.113 24.949C159.975 24.8802 159.829 24.8115 159.675 24.7428C159.537 24.6741 159.391 24.6139 159.237 24.5624C159.099 24.4937 158.962 24.4593 158.824 24.4593C158.395 24.4593 158 24.6139 157.639 24.9232C157.278 25.2324 157.098 25.8338 157.098 26.7272V31.5721C157.098 31.8469 157.209 32.0617 157.433 32.2163C157.656 32.3709 157.991 32.517 158.438 32.6544C158.627 32.706 158.773 32.7661 158.876 32.8348C158.979 32.8864 159.031 32.9723 159.031 33.0925C159.031 33.2987 158.867 33.4018 158.541 33.4018C158.025 33.4018 157.579 33.376 157.201 33.3245C156.84 33.2901 156.436 33.2729 155.99 33.2729C155.697 33.2729 155.44 33.2815 155.216 33.2987C154.993 33.3159 154.761 33.3331 154.521 33.3502C154.28 33.3846 153.988 33.4018 153.644 33.4018ZM162.517 33.4018C162.38 33.4018 162.26 33.376 162.157 33.3245C162.054 33.2729 162.002 33.1956 162.002 33.0925C162.002 32.9551 162.054 32.8606 162.157 32.809C162.277 32.7403 162.423 32.6802 162.595 32.6287C162.852 32.5599 163.093 32.4654 163.316 32.3452C163.54 32.2249 163.651 31.993 163.651 31.6494V25.9798C163.651 25.5503 163.6 25.1895 163.497 24.8974C163.411 24.5882 163.162 24.382 162.749 24.2789C162.681 24.2617 162.62 24.2274 162.569 24.1758C162.517 24.1071 162.492 24.0212 162.492 23.9181C162.492 23.6948 162.569 23.5745 162.724 23.5573C163.325 23.4027 163.866 23.2137 164.347 22.9904C164.845 22.767 165.301 22.5179 165.713 22.243C165.765 22.2087 165.816 22.1743 165.868 22.14C165.936 22.1056 165.996 22.0884 166.048 22.0884C166.117 22.0884 166.16 22.1142 166.177 22.1657C166.211 22.2001 166.228 22.2516 166.228 22.3204C166.228 22.4406 166.203 22.6726 166.151 23.0162C166.117 23.3598 166.1 23.6518 166.1 23.8924C166.1 23.9611 166.1 24.0298 166.1 24.0985C166.117 24.1673 166.134 24.2102 166.151 24.2274C166.752 23.6604 167.371 23.2309 168.007 22.9388C168.659 22.6468 169.39 22.5007 170.197 22.5007C171.056 22.5007 171.769 22.8358 172.336 23.5058C172.903 24.1758 173.187 25.0435 173.187 26.1087V31.6751C173.187 32.0187 173.298 32.2421 173.522 32.3452C173.762 32.4483 174.011 32.5428 174.269 32.6287C174.406 32.6802 174.535 32.7403 174.655 32.809C174.776 32.8778 174.836 32.9809 174.836 33.1183C174.836 33.2386 174.776 33.3159 174.655 33.3502C174.552 33.3846 174.449 33.4018 174.346 33.4018C174.003 33.4018 173.711 33.3846 173.47 33.3502C173.247 33.3331 173.023 33.3159 172.8 33.2987C172.594 33.2815 172.336 33.2729 172.027 33.2729C171.735 33.2729 171.477 33.2815 171.254 33.2987C171.03 33.3159 170.798 33.3331 170.558 33.3502C170.335 33.3846 170.051 33.4018 169.707 33.4018C169.622 33.4018 169.518 33.3846 169.398 33.3502C169.278 33.3159 169.218 33.2386 169.218 33.1183C169.218 32.9809 169.278 32.8778 169.398 32.809C169.518 32.7403 169.647 32.6802 169.785 32.6287C170.042 32.5428 170.283 32.4483 170.506 32.3452C170.73 32.2421 170.841 32.0187 170.841 31.6751V26.3406C170.841 25.619 170.644 25.0606 170.249 24.6655C169.871 24.2703 169.372 24.0642 168.754 24.047C168.221 24.047 167.749 24.1329 167.337 24.3047C166.941 24.4593 166.572 24.6741 166.228 24.949C166.16 25.0177 166.108 25.1036 166.074 25.2067C166.039 25.3098 166.022 25.4043 166.022 25.4902V31.6751C166.022 32.0187 166.134 32.2507 166.357 32.3709C166.581 32.474 166.813 32.5599 167.053 32.6287C167.431 32.7489 167.62 32.9035 167.62 33.0925C167.62 33.1956 167.577 33.2729 167.491 33.3245C167.405 33.376 167.285 33.4018 167.13 33.4018C166.787 33.4018 166.495 33.3846 166.254 33.3502C166.031 33.3331 165.816 33.3159 165.61 33.2987C165.421 33.2815 165.172 33.2729 164.863 33.2729C164.57 33.2729 164.313 33.2815 164.089 33.2987C163.866 33.3159 163.634 33.3331 163.394 33.3502C163.153 33.3846 162.861 33.4018 162.517 33.4018ZM180.428 33.711C179.501 33.711 178.676 33.4791 177.954 33.0152C177.25 32.5342 176.692 31.8727 176.279 31.0309C175.867 30.1718 175.661 29.184 175.661 28.0672C175.661 27.0536 175.893 26.1258 176.357 25.284C176.838 24.4421 177.473 23.7721 178.264 23.2739C179.054 22.7585 179.922 22.5007 180.867 22.5007C181.571 22.5007 182.198 22.6468 182.748 22.9388C183.315 23.2137 183.753 23.6089 184.062 24.1243C184.389 24.6225 184.552 25.1981 184.552 25.8509C184.552 26.4179 184.286 26.7014 183.753 26.7014H178.418C178.178 26.7014 178.006 26.7701 177.903 26.9075C177.8 27.045 177.748 27.2941 177.748 27.6549C177.748 28.4108 177.92 29.1066 178.264 29.7423C178.607 30.3608 179.063 30.8591 179.63 31.237C180.197 31.615 180.824 31.804 181.511 31.804C182.026 31.804 182.49 31.7095 182.902 31.5205C183.332 31.3143 183.727 31.0309 184.088 30.6701C184.139 30.6014 184.182 30.5498 184.217 30.5155C184.268 30.4811 184.32 30.4639 184.371 30.4639C184.526 30.4639 184.603 30.5584 184.603 30.7474C184.603 31.0223 184.483 31.3487 184.243 31.7267C184.002 32.0875 183.693 32.4225 183.315 32.7317C182.954 33.0238 182.525 33.2557 182.026 33.4275C181.545 33.6165 181.013 33.711 180.428 33.711ZM178.444 25.8252H180.506C180.952 25.8252 181.305 25.8166 181.562 25.7994C181.82 25.7822 182.061 25.7479 182.284 25.6963C182.37 25.662 182.43 25.5932 182.464 25.4902C182.499 25.3699 182.516 25.2239 182.516 25.0521C182.516 24.571 182.318 24.1673 181.923 23.8408C181.528 23.4972 181.056 23.3254 180.506 23.3254C180.128 23.3254 179.75 23.4371 179.372 23.6604C179.011 23.8838 178.71 24.1673 178.47 24.5109C178.229 24.8373 178.118 25.1723 178.135 25.5159C178.135 25.7221 178.238 25.8252 178.444 25.8252ZM186.082 33.4018C185.928 33.4018 185.799 33.376 185.696 33.3245C185.61 33.2729 185.567 33.1956 185.567 33.0925C185.567 32.9551 185.618 32.8606 185.722 32.809C185.842 32.7403 185.988 32.6802 186.16 32.6287C186.52 32.5428 186.77 32.4225 186.907 32.2679C187.062 32.1132 187.139 31.9071 187.139 31.6494V25.9798C187.139 25.5503 187.079 25.1895 186.959 24.8974C186.838 24.5882 186.581 24.3906 186.185 24.3047C186.117 24.2875 186.048 24.2446 185.979 24.1758C185.928 24.1071 185.902 24.0212 185.902 23.9181C185.902 23.7292 185.988 23.6089 186.16 23.5573C186.641 23.4199 187.156 23.2309 187.706 22.9904C188.256 22.7327 188.702 22.5093 189.046 22.3204C189.149 22.2516 189.244 22.2001 189.329 22.1657C189.415 22.1314 189.475 22.1142 189.51 22.1142C189.63 22.1142 189.69 22.1829 189.69 22.3204C189.69 22.3891 189.682 22.5351 189.664 22.7585C189.664 22.9818 189.656 23.2309 189.639 23.5058C189.622 23.7807 189.613 24.047 189.613 24.3047C189.613 24.3734 189.63 24.4078 189.664 24.4078C189.939 24.0642 190.24 23.7463 190.566 23.4543C190.91 23.1622 191.271 22.9303 191.649 22.7585C192.027 22.5695 192.388 22.475 192.731 22.475C193.178 22.475 193.522 22.5695 193.762 22.7585C194.003 22.9303 194.123 23.1622 194.123 23.4543C194.123 23.6433 194.063 23.8666 193.942 24.1243C193.839 24.3648 193.693 24.5796 193.504 24.7686C193.333 24.9404 193.144 25.0263 192.937 25.0263C192.817 25.0263 192.688 25.0005 192.551 24.949C192.413 24.8802 192.267 24.8115 192.113 24.7428C191.975 24.6741 191.829 24.6139 191.675 24.5624C191.537 24.4937 191.4 24.4593 191.262 24.4593C190.833 24.4593 190.438 24.6139 190.077 24.9232C189.716 25.2324 189.536 25.8338 189.536 26.7272V31.5721C189.536 31.8469 189.647 32.0617 189.871 32.2163C190.094 32.3709 190.429 32.517 190.876 32.6544C191.065 32.706 191.211 32.7661 191.314 32.8348C191.417 32.8864 191.468 32.9723 191.468 33.0925C191.468 33.2987 191.305 33.4018 190.979 33.4018C190.463 33.4018 190.017 33.376 189.639 33.3245C189.278 33.2901 188.874 33.2729 188.427 33.2729C188.135 33.2729 187.878 33.2815 187.654 33.2987C187.431 33.3159 187.199 33.3331 186.959 33.3502C186.718 33.3846 186.426 33.4018 186.082 33.4018ZM197.764 33.6853C197.215 33.6853 196.691 33.6079 196.192 33.4533C195.711 33.2987 195.29 33.0753 194.93 32.7833C194.809 32.5599 194.723 32.2077 194.672 31.7267C194.62 31.2456 194.595 30.8075 194.595 30.4124C194.595 30.2406 194.723 30.1547 194.981 30.1547C195.084 30.1547 195.17 30.1804 195.239 30.232C195.325 30.2663 195.376 30.3179 195.393 30.3866C195.651 31.1941 196.012 31.804 196.476 32.2163C196.94 32.6287 197.447 32.8348 197.996 32.8348C198.477 32.8348 198.872 32.6802 199.182 32.3709C199.491 32.0445 199.646 31.658 199.646 31.2113C199.646 30.7474 199.482 30.3608 199.156 30.0516C198.83 29.7251 198.331 29.3558 197.661 28.9434C197.111 28.617 196.639 28.2992 196.244 27.9899C195.849 27.6635 195.548 27.3113 195.342 26.9333C195.136 26.5382 195.033 26.0915 195.033 25.5932C195.033 24.9919 195.179 24.4593 195.471 23.9955C195.78 23.5316 196.21 23.1622 196.759 22.8873C197.309 22.6124 197.971 22.475 198.744 22.475C199.293 22.475 199.757 22.5351 200.135 22.6554C200.53 22.7585 200.814 22.8701 200.986 22.9904C201.123 23.1794 201.235 23.4886 201.321 23.9181C201.424 24.3477 201.475 24.7772 201.475 25.2067C201.475 25.3441 201.364 25.4128 201.14 25.4128C201.037 25.4128 200.926 25.3871 200.805 25.3355C200.702 25.284 200.633 25.2153 200.599 25.1294C200.376 24.528 200.092 24.0728 199.749 23.7635C199.422 23.4543 199.019 23.2996 198.537 23.2996C198.125 23.2996 197.756 23.4285 197.429 23.6862C197.103 23.9267 196.94 24.2789 196.94 24.7428C196.94 25.138 197.077 25.4902 197.352 25.7994C197.644 26.0915 198.099 26.4093 198.718 26.7529C199.749 27.3199 200.505 27.8611 200.986 28.3765C201.484 28.8747 201.733 29.5448 201.733 30.3866C201.733 31.3831 201.372 32.182 200.651 32.7833C199.946 33.3846 198.984 33.6853 197.764 33.6853Z" fill="#FF9113"/>
</g>
<defs>
<filter id="filter0_d_1604_444" x="0.549434" y="0.0170898" width="205.265" height="40.7427" filterUnits="userSpaceOnUse" color-interpolation-filters="sRGB">
<feFlood flood-opacity="0" result="BackgroundImageFix"/>
<feColorMatrix in="SourceAlpha" type="matrix" values="0 0 0 0 0 0 0 0 0 0 0 0 0 0 0 0 0 0 127 0" result="hardAlpha"/>
<feOffset dy="3.21766"/>
<feGaussianBlur stdDeviation="1.60883"/>
<feComposite in2="hardAlpha" operator="out"/>
<feColorMatrix type="matrix" values="0 0 0 0 0 0 0 0 0 0 0 0 0 0 0 0 0 0 0.25 0"/>
<feBlend mode="normal" in2="BackgroundImageFix" result="effect1_dropShadow_1604_444"/>
<feBlend mode="normal" in="SourceGraphic" in2="effect1_dropShadow_1604_444" result="shape"/>
</filter>
</defs>
</svg>
