<svg xmlns="http://www.w3.org/2000/svg" width="537" height="140" fill="none">
	<g id="Result" stroke="#000" stroke-linecap="round" stroke-linejoin="round" stroke-width="11">
		<path id="1" d="M63 33.5c-7 23.5-17.5 71-43 71-12 0-16-8-13.5-18.5" />
		<path id="2" d="M24.5 55c-2.167-7.167-2.2-24.3 13-33.5 23.956-14.5 52 5 86-1.5" />
		<path
			id="3"
			d="M92.5 36c-11 20.5-23.5 68 0 68 19 0 50.5-62.5 48-47.5-2 12-16.5 55.5-25 77.5 4.433-12.241 9.28-33.061 18.5-47.5 11.368-17.802 28.394-27.689 35-24.5 14.5 7-22.5 34-1 42.5 16.441 6.5 56.216-61.242 50.5-46-6 16-12.5 37-4 43.5 16 12.236 49-47.5 42-47.5-4 0-15.283 42.624-1.5 46.5 16 4.5 31.5-20 40.5-33 12-5.5 27.4-23.9 33-31.5 7-9.5 13-27.59 5-30.5-9.5-3.454-19.911 14.543-25.5 26-10 20.5-24.5 74.5-1 75.5 18 .766 25.5-40.3 19.5-38.5-5 1.5-6.894 26.69 8.5 28.5 19 2.235 44.005-48.014 41-40-3 8-18 49 2 48 22.5-1.125 45.5-54.5 54.5-51 10.839 4.215-6.5 36.167-10.5 51 8.302-22.5 27.17-47.937 38.5-45 13.5 3.5 2.5 30.667-1.5 43 7-17.5 22.5-50.867 37-47 14.5 3.867-8 40.5 6 45.5 9.604 3.43 23.833-13.833 29.5-22"
		/>
		<path id="4" d="m384.5 34.5-.5 1" />
	</g>
</svg>
