<svg width="344" height="124" viewBox="0 0 344 124" fill="none" xmlns="http://www.w3.org/2000/svg">
<g id="EN">
<path id="1" d="M32.5 20.0001C37.1667 14.5001 48.5 3.31264 60.0001 10.5C69.0001 16.1249 60.0001 42.5001 52.5001 65.5001C45.0001 88.5001 26 124.5 12 117.5C-0.499979 111.25 9.00006 92.0001 16.5001 83.5001C24.0001 75.0001 51.5001 52.0001 110 58.0001" stroke="#FF0000" stroke-width="11" stroke-linecap="round"/>
<path id="2" d="M110.5 7C105.656 22.5397 98.8046 41.6053 93.0667 59.5C84.5888 85.9399 78.5427 109.823 85 116C95.8276 126.357 114 98.5 122 88.5" stroke="#FF0000" stroke-width="11" stroke-linecap="round"/>
<path id="3" d="M126.5 83.5C135.667 89 156.5 95.7 166.5 78.5C179 57 151 49 133.5 69.5C116 90 124.038 109.37 131.5 114.5C139.5 120 160 126.5 191.5 83.5" stroke="#FF0000" stroke-width="11" stroke-linecap="round"/>
<path id="4" d="M190.903 86.0008C200.903 73.0008 224.5 57 236 31.5006C245.307 10.8638 228.714 -16.5596 205.5 36.5005C188 76.5 186.5 106.696 197 114C206 120.261 217 120.001 242 86.0008" stroke="#FF0000" stroke-width="11" stroke-linecap="round"/>
<path id="5" d="M243 84.4999C253 72.4999 278.5 57 289 33C297.992 12.4459 282.855 -15.1711 257.5 36.5005C238.267 75.6961 237.5 107.196 248 114.5C257 120.761 263 121 288 87" stroke="#FF0000" stroke-width="11" stroke-linecap="round"/>
<path id="6" d="M289.5 85C274 120 312.5 130.5 332 96C355.5 52 309 43.5 290 83.5" stroke="#FF0000" stroke-width="11" stroke-linecap="round"/>
</g>
</svg>
