<svg xmlns="http://www.w3.org/2000/svg" viewBox="0 0 1314 167"   fill="none">
  <path fill="currentColor" d="M7.52 121.64c-1.17333 0-2.18667-.16-3.04-.48-.74667-.213-1.12-.693-1.12-1.44 0-1.387 1.54667-2.4 4.64-3.04 4.0533-.747 6.9333-1.92 8.64-3.52 1.8133-1.6 2.72-4.267 2.72-8V36.2c0-4.48-.64-7.84-1.92-10.08-1.1733-2.24-3.7333-3.7333-7.68-4.48-1.70667-.32-2.93333-.7467-3.68-1.28s-1.12-1.1733-1.12-1.92c0-.64.37333-1.12 1.12-1.44.85333-.4267 1.86667-.64 3.04-.64 2.7733 0 5.0667.0533 6.88.16 1.8133 0 3.5733.0533 5.28.16s3.6267.16 5.76.16c2.24 0 4.4267-.1067 6.56-.32 2.1333-.2133 4.2133-.4267 6.24-.64 2.1333-.2133 4.2667-.32 6.4-.32 12.48 0 22.4533 2.6133 29.92 7.84 7.4667 5.2267 11.2 12.4267 11.2 21.6 0 6.5067-1.3333 12.5333-4 18.08-2.56 5.5467-6.56 10.0267-12 13.44-5.44 3.3067-12.3733 4.96-20.8 4.96-2.4533 0-4.3733-.3733-5.76-1.12-1.28-.7467-1.92-1.4933-1.92-2.24 0-.64.32-1.1733.96-1.6.64-.5333 1.2267-.8 1.76-.8.7467 0 1.6.1067 2.56.32 1.0667.1067 2.56.16 4.48.16 5.76 0 10.08-2.6133 12.96-7.84 2.9867-5.2267 4.48-12.32 4.48-21.28s-2.24-15.52-6.72-19.68C58.9867 23.1333 53.28 21 46.24 21c-2.9867 0-5.3867.5867-7.2 1.76-1.7067 1.0667-2.56 2.88-2.56 5.44l-.16 75.68c0 3.627.8533 6.507 2.56 8.64 1.7067 2.027 4.64 3.413 8.8 4.16 1.4933.32 2.6133.693 3.36 1.12.8533.427 1.28 1.067 1.28 1.92 0 .64-.3733 1.12-1.12 1.44-.7467.32-1.76.48-3.04.48-2.6667 0-5.0667-.107-7.2-.32-2.0267-.107-4-.213-5.92-.32-1.8133-.213-3.7333-.32-5.76-.32-2.56 0-5.0133.107-7.36.32-2.24.107-4.5333.213-6.88.32-2.24.213-4.7467.32-7.52.32Zm136.526 2.56c-.853 0-1.28-.48-1.28-1.44 0-1.173.107-2.773.32-4.8.32-2.133.48-3.84.48-5.12v-1.28c-3.733 3.84-7.786 6.773-12.16 8.8-4.266 1.92-8.906 2.88-13.92 2.88-3.306 0-6.346-.8-9.12-2.4-2.773-1.6-4.96-3.893-6.56-6.88-1.493-3.093-2.2398-6.72-2.2398-10.88V71.4c0-2.3467-.5333-4.2133-1.6-5.6-.96-1.4933-2.6666-2.6133-5.12-3.36-.5333-.2133-1.0666-.48-1.6-.8-.4266-.4267-.64-1.0667-.64-1.92 0-.96.2134-1.6.64-1.92.5334-.4267 1.12-.6933 1.76-.8 3.9467-.2133 7.1998-.5333 9.7598-.96 2.56-.5333 5.44-1.2267 8.64-2.08.427-.1067.8-.16 1.12-.16.32-.1067.64-.16.96-.16 1.28 0 1.867.7467 1.76 2.24-.32 2.4533-.586 4.5333-.8 6.24-.213 1.6-.32 3.6267-.32 6.08v31.04c0 2.56.534 4.907 1.6 7.04 1.174 2.027 2.72 3.68 4.64 4.96 1.92 1.28 3.894 1.973 5.92 2.08 2.454 0 4.64-.16 6.56-.48 1.92-.427 3.787-1.387 5.6-2.88.96-.747 2.134-2.027 3.52-3.84 1.494-1.813 2.24-4.32 2.24-7.52v-28c0-2.1333-.586-3.7333-1.76-4.8-1.066-1.1733-2.4-2.0267-4-2.56-1.493-.5333-2.88-.8533-4.16-.96-1.066 0-1.92-.2133-2.56-.64-.64-.4267-.96-1.1733-.96-2.24 0-1.0667.32-1.76.96-2.08.747-.4267 1.6-.64 2.56-.64 4.054-.2133 7.307-.4267 9.76-.64 2.56-.2133 4.747-.48 6.56-.8 1.92-.32 3.894-.7467 5.92-1.28.214-.1067.48-.16.8-.16.427-.1067.747-.16.96-.16 1.387 0 2.08.5867 2.08 1.76 0 .2133-.053.48-.16.8 0 .32-.053.64-.16.96-.106.4267-.266 1.3867-.48 2.88-.106 1.3867-.266 2.88-.48 4.48-.106 1.6-.16 2.88-.16 3.84v36.96c0 2.667.267 4.587.8 5.76.64 1.067 1.334 1.6 2.08 1.6.747 0 1.814-.053 3.2-.16 1.494-.107 2.56-.16 3.2-.16.64 0 1.227.16 1.76.48.534.32.8.96.8 1.92 0 .853-.213 1.493-.64 1.92-.426.32-1.013.533-1.76.64-4.48.533-8.426 1.387-11.84 2.56-3.413 1.173-6.4 2.24-8.96 3.2-.426.213-1.013.427-1.76.64-.64.32-1.226.48-1.76.48Zm65.785-.96c-2.666 0-5.226-.267-7.68-.8-2.453-.427-4.746-.907-6.88-1.44-2.026-.533-3.84-1.013-5.44-1.44-1.6-.533-2.72-.8-3.36-.8-.853 0-1.653.213-2.4.64-.64.427-1.28.907-1.92 1.44-.746.64-1.333.96-1.76.96-.64 0-1.226-.213-1.76-.64-.533-.427-.8-.907-.8-1.44 0-.96.214-2.667.64-5.12.534-2.453.8-5.067.8-7.84l-.32-75.36c0-2.7733-.586-5.1733-1.76-7.2-1.173-2.1333-2.88-3.6267-5.12-4.48-.533-.2133-1.013-.48-1.44-.8-.426-.4267-.64-.96-.64-1.6 0-.5333.16-.96.48-1.28.427-.32.907-.5333 1.44-.64 1.707-.32 3.894-.9067 6.56-1.76 2.667-.96 5.174-1.92 7.52-2.88 2.454-.96 4.214-1.65334 5.28-2.08.747-.32001 1.28-.48001 1.6-.48001.427 0 .747.16.96.48001.214.21333.32.53333.32.95999 0 .53331-.106 2.18671-.32 4.96001-.106 2.6667-.16 5.8133-.16 9.44l-.16 33.28c0 1.8133.107 3.0933.32 3.84.32.7467.694 1.12 1.12 1.12 3.307-2.56 6.987-4.5867 11.04-6.08 4.16-1.6 7.947-2.4 11.36-2.4 5.44 0 10.347 1.3867 14.72 4.16 4.374 2.7733 7.84 6.6133 10.4 11.52 2.667 4.8 4 10.24 4 16.32 0 7.36-1.546 13.8667-4.64 19.52-3.093 5.653-7.413 10.08-12.96 13.28-5.44 3.093-11.786 4.64-19.04 4.64Zm3.36-5.6c3.627 0 6.72-1.227 9.28-3.68 2.667-2.56 4.694-5.973 6.08-10.24 1.494-4.2667 2.24-8.96 2.24-14.08 0-4.2667-.693-8.5867-2.08-12.96-1.386-4.3733-3.573-8-6.56-10.88-2.986-2.9867-6.773-4.48-11.36-4.48-3.413 0-6.613.5333-9.6 1.6-2.986 1.0667-5.546 2.5067-7.68 4.32V99.4c0 3.627.907 6.827 2.72 9.6 1.92 2.773 4.374 4.907 7.36 6.4 3.094 1.493 6.294 2.24 9.6 2.24Zm37.239 3.84c-.747 0-1.493-.107-2.24-.32-.64-.213-.96-.693-.96-1.44 0-.853.373-1.44 1.12-1.76.747-.427 1.6-.853 2.56-1.28 1.6-.533 3.093-1.12 4.48-1.76 1.387-.64 2.08-2.08 2.08-4.32V31.4c0-3.0933-.533-5.6533-1.6-7.68-.96-2.1333-2.773-3.4667-5.44-4-.853-.2133-1.28-.96-1.28-2.24 0-1.1733.373-1.8667 1.12-2.08 2.773-.5333 5.387-1.2267 7.84-2.08 2.453-.8533 4.747-1.7067 6.88-2.56 2.133-.85334 4.053-1.6 5.76-2.24.64-.21334 1.12-.32001 1.44-.32001.32 0 .533.16.64.48001.213.31999.32.63999.32.95999 0 .85331-.16 2.66671-.48 5.44001-.32 2.7733-.48 6.9333-.48 12.48v83.04c0 2.133.693 3.573 2.08 4.32 1.387.64 2.88 1.227 4.48 1.76.96.32 1.813.693 2.56 1.12.747.427 1.12 1.067 1.12 1.92 0 .64-.373 1.067-1.12 1.28-.64.213-1.333.32-2.08.32-2.027 0-3.787-.053-5.28-.16-1.493-.107-2.933-.213-4.32-.32-1.387-.107-3.04-.16-4.96-.16-1.813 0-3.413.053-4.8.16-1.387.107-2.773.213-4.16.32-1.387.213-3.147.32-5.28.32Zm36.777 0c-.853 0-1.6-.16-2.24-.48-.533-.32-.8-.8-.8-1.44 0-.853.32-1.44.96-1.76.747-.427 1.547-.747 2.4-.96 2.454-.64 4.267-1.333 5.44-2.08 1.174-.747 1.76-2.08 1.76-4V76.2c0-3.2-.533-5.76-1.6-7.68-1.066-2.0267-2.933-3.2533-5.6-3.68-.533-.1067-.96-.32-1.28-.64-.213-.4267-.32-1.0133-.32-1.76 0-1.28.48-1.9733 1.44-2.08 4.694-1.0667 8.694-2.4533 12-4.16 3.414-1.8133 5.974-3.2533 7.68-4.32 1.174-.7467 2.027-1.12 2.56-1.12.854 0 1.28.4267 1.28 1.28 0 1.1733-.16 3.04-.48 5.6-.213 2.56-.48 5.3333-.8 8.32-.213 2.9867-.32 5.76-.32 8.32v36.48c0 1.707.587 2.987 1.76 3.84 1.174.853 2.987 1.6 5.44 2.24.854.213 1.6.533 2.24.96.747.32 1.12.907 1.12 1.76 0 1.28-.96 1.92-2.88 1.92-2.026 0-3.84-.107-5.44-.32-1.6-.107-3.146-.213-4.64-.32-1.386-.107-3.04-.16-4.96-.16-1.813 0-3.466.053-4.96.16-1.493.107-2.986.213-4.48.32-1.386.213-3.146.32-5.28.32Zm14.4-81.76c-2.666 0-4.96-.9067-6.88-2.72-1.813-1.92-2.72-4.2133-2.72-6.88 0-2.7733.907-5.0667 2.72-6.88 1.92-1.92 4.214-2.88 6.88-2.88 2.774 0 5.12.96 7.04 2.88 1.92 1.8133 2.88 4.1067 2.88 6.88 0 2.6667-.96 4.96-2.88 6.88-1.92 1.8133-4.266 2.72-7.04 2.72Zm40.432 83.52c-3.414 0-6.667-.48-9.76-1.44-2.987-.96-5.6-2.347-7.84-4.16-.747-1.387-1.28-3.573-1.6-6.56-.32-2.987-.48-5.707-.48-8.16 0-1.067.8-1.6 2.4-1.6.64 0 1.173.16 1.6.48.533.213.853.533.96.96 1.6 5.013 3.84 8.8 6.72 11.36 2.88 2.56 6.026 3.84 9.44 3.84 2.986 0 5.44-.96 7.36-2.88 1.92-2.027 2.88-4.427 2.88-7.2 0-2.88-1.014-5.28-3.04-7.2-2.027-2.0267-5.12-4.32-9.28-6.88-3.414-2.0267-6.347-4-8.8-5.92-2.454-2.0267-4.32-4.2133-5.6-6.56-1.28-2.4533-1.92-5.2267-1.92-8.32 0-3.7333.906-7.04 2.72-9.92 1.92-2.88 4.586-5.1733 8-6.88 3.413-1.7067 7.52-2.56 12.32-2.56 3.413 0 6.293.3733 8.64 1.12 2.453.64 4.213 1.3333 5.28 2.08.853 1.1733 1.546 3.0933 2.08 5.76.64 2.6667.96 5.3333.96 8 0 .8533-.694 1.28-2.08 1.28-.64 0-1.334-.16-2.08-.48-.64-.32-1.067-.7467-1.28-1.28-1.387-3.7333-3.147-6.56-5.28-8.48-2.027-1.92-4.534-2.88-7.52-2.88-2.56 0-4.854.8-6.88 2.4-2.027 1.4933-3.04 3.68-3.04 6.56 0 2.4533.853 4.64 2.56 6.56 1.813 1.8133 4.64 3.7867 8.48 5.92 6.4 3.52 11.093 6.88 14.08 10.08 3.093 3.0933 4.64 7.2533 4.64 12.48 0 6.187-2.24 11.147-6.72 14.88-4.374 3.733-10.347 5.6-17.92 5.6Zm30.71-1.76c-2.134 0-3.2-.64-3.2-1.92 0-1.067 1.226-2.027 3.68-2.88 1.6-.533 3.093-1.173 4.48-1.92 1.386-.747 2.08-2.24 2.08-4.48V31.4c0-2.88-.427-5.3867-1.28-7.52-.854-2.24-2.667-3.5733-5.44-4-.96-.2133-1.44-1.0133-1.44-2.4 0-1.0667.426-1.76 1.28-2.08 1.813-.5333 3.946-1.1733 6.4-1.92 2.56-.7467 5.066-1.5467 7.52-2.4 2.453-.96 4.533-1.81334 6.24-2.56.64-.21334 1.12-.32001 1.44-.32001.426 0 .746.16.96.48001.213.21333.32.53333.32.95999 0 .53331-.107 1.38671-.32 2.56001-.214 1.0667-.427 2.8267-.64 5.28-.214 2.3467-.32 5.7067-.32 10.08V58.6c0 1.4933.053 2.6667.16 3.52.213.7467.48 1.3867.8 1.92 1.706-1.28 3.733-2.72 6.08-4.32 2.453-1.6 5.173-2.9867 8.16-4.16 3.093-1.1733 6.346-1.76 9.76-1.76 5.44 0 9.92 2.0267 13.44 6.08 3.626 4.0533 5.44 9.3867 5.44 16v34.08c0 2.133.64 3.68 1.92 4.64 1.386.853 2.88 1.547 4.48 2.08 1.066.427 1.92.853 2.56 1.28.64.32.96.853.96 1.6 0 1.28-1.12 1.92-3.36 1.92-2.24 0-4-.107-5.28-.32-1.28-.107-2.507-.213-3.68-.32-1.174-.107-2.774-.16-4.8-.16-2.027 0-3.627.053-4.8.16-1.067.107-2.24.213-3.52.32-1.174.213-2.934.32-5.28.32-2.24 0-3.36-.64-3.36-1.92 0-.853.32-1.44.96-1.76.64-.32 1.493-.693 2.56-1.12 1.493-.427 2.88-1.12 4.16-2.08 1.28-.96 1.92-2.56 1.92-4.8V77.48c0-2.56-.694-4.8533-2.08-6.88-1.387-2.1333-3.094-3.7867-5.12-4.96-1.92-1.1733-3.947-1.76-6.08-1.76-1.92 0-4.107.2667-6.56.8-2.347.5333-4.32 1.44-5.92 2.72-1.387 1.0667-2.347 2.24-2.88 3.52-.427 1.1733-.64 3.1467-.64 5.92v33.44c.106 2.133.746 3.627 1.92 4.48 1.173.747 2.506 1.387 4 1.92 1.066.32 1.92.693 2.56 1.12.64.427.96 1.013.96 1.76 0 1.28-1.067 1.92-3.2 1.92-2.134 0-3.894-.107-5.28-.32-1.28-.107-2.56-.213-3.84-.32-1.174-.107-2.72-.16-4.64-.16-1.814 0-3.414.053-4.8.16-1.28.107-2.667.213-4.16.32-1.387.213-3.147.32-5.28.32Zm108.04 1.92c-5.76 0-10.88-1.44-15.36-4.32-4.374-2.987-7.84-7.093-10.4-12.32-2.56-5.333-3.84-11.4667-3.84-18.4 0-6.2933 1.44-12.0533 4.32-17.28 2.986-5.2267 6.933-9.3867 11.84-12.48 4.906-3.2 10.293-4.8 16.16-4.8 4.373 0 8.266.9067 11.68 2.72 3.52 1.7067 6.24 4.16 8.16 7.36 2.026 3.0933 3.04 6.6667 3.04 10.72 0 3.52-1.654 5.28-4.96 5.28h-33.12c-1.494 0-2.56.4267-3.2 1.28-.64.8533-.96 2.4-.96 4.64 0 4.6933 1.066 9.0133 3.2 12.96 2.133 3.84 4.96 6.933 8.48 9.28 3.52 2.347 7.413 3.52 11.68 3.52 3.2 0 6.08-.587 8.64-1.76 2.666-1.28 5.12-3.04 7.36-5.28.32-.427.586-.747.8-.96.32-.213.64-.32.96-.32.96 0 1.44.587 1.44 1.76 0 1.707-.747 3.733-2.24 6.08-1.494 2.24-3.414 4.32-5.76 6.24-2.24 1.813-4.907 3.253-8 4.32-2.987 1.173-6.294 1.76-9.92 1.76Zm-12.32-48.96h12.8c2.773 0 4.96-.0533 6.56-.16 1.6-.1067 3.093-.32 4.48-.64.533-.2133.906-.64 1.12-1.28.213-.7467.32-1.6533.32-2.72 0-2.9867-1.227-5.4933-3.68-7.52-2.454-2.1333-5.387-3.2-8.8-3.2-2.347 0-4.694.6933-7.04 2.08-2.24 1.3867-4.107 3.1467-5.6 5.28-1.494 2.0267-2.187 4.1067-2.08 6.24 0 1.28.64 1.92 1.92 1.92Zm93.689 49.6c-.214 0-.587-.267-1.12-.8-.534-.533-.8-.907-.8-1.12.106-1.28.266-2.827.48-4.64.213-1.813.32-3.36.32-4.64v-.96c-1.814 2.773-4.534 5.387-8.16 7.84-3.52 2.347-7.787 3.52-12.8 3.52-6.08 0-11.36-1.547-15.84-4.64-4.48-3.2-8-7.307-10.56-12.32-2.454-5.013-3.68-10.3467-3.68-16 0-6.5067 1.493-12.5333 4.48-18.08 2.986-5.5467 7.253-9.9733 12.8-13.28 5.546-3.4133 12.053-5.12 19.52-5.12 1.92 0 3.893.2133 5.92.64 2.133.32 3.786.6933 4.96 1.12 1.173.32 1.866.48 2.08.48.746 0 1.12-1.12 1.12-3.36V31.4c0-4.16-.64-7.04-1.92-8.64-1.28-1.6-3.147-2.6133-5.6-3.04-1.067-.2133-1.6-.96-1.6-2.24 0-1.0667.48-1.76 1.44-2.08 4.48-1.0667 8.32-2.1867 11.52-3.36 3.2-1.1733 5.76-2.13334 7.68-2.88001.746-.42666 1.333-.63999 1.76-.63999.426-.10667.746-.16001.96-.16001.853 0 1.28.42667 1.28 1.28 0 .32001-.054 1.17331-.16 2.56001-.107 1.3867-.267 3.36-.48 5.92-.214 2.56-.32 5.7067-.32 9.44l-.32 75.36c0 3.627.266 6.24.8 7.84.533 1.6 1.44 2.4 2.72 2.4.533 0 1.333-.053 2.4-.16 1.066-.107 2.506-.213 4.32-.32 1.706-.107 2.56.427 2.56 1.6 0 .747-.267 1.493-.8 2.24-.534.64-1.067.96-1.6.96-3.307.427-6.667 1.067-10.08 1.92-3.307.853-6.827 2.08-10.56 3.68-.854.427-1.44.693-1.76.8-.32.107-.64.16-.96.16Zm-15.52-10.08c2.346 0 4.8-.587 7.36-1.76 2.666-1.28 4.906-2.933 6.72-4.96v-31.2c0-2.4533-.8-4.9067-2.4-7.36-1.494-2.56-3.574-4.5867-6.24-6.08-2.667-1.6-5.707-2.4-9.12-2.4-2.454 0-5.067.8533-7.84 2.56-2.774 1.6-5.12 4.32-7.04 8.16s-2.88 9.0133-2.88 15.52c0 5.44.746 9.9733 2.24 13.6 1.493 3.52 3.36 6.293 5.6 8.32 2.346 2.027 4.746 3.467 7.2 4.32 2.453.853 4.586 1.28 6.4 1.28Zm103.252 11.2c-.213 0-.48-.16-.8-.48-.32-.213-.587-.533-.8-.96L625.73 68.2c-.747-2.24-1.867-4.0533-3.36-5.44-1.493-1.4933-3.093-2.5067-4.8-3.04-.96-.32-1.813-.6933-2.56-1.12-.64-.5333-.96-1.1733-.96-1.92 0-.7467.427-1.1733 1.28-1.28.853-.2133 1.547-.32 2.08-.32 1.813 0 3.36.0533 4.64.16 1.387.1067 2.72.2667 4 .48 1.387.1067 2.88.16 4.48.16 1.707 0 3.307-.0533 4.8-.16 1.6-.2133 3.147-.3733 4.64-.48 1.493-.1067 3.147-.16 4.96-.16.533 0 1.227.1067 2.08.32s1.28.64 1.28 1.28c0 .8533-.427 1.4933-1.28 1.92-.747.32-1.547.6933-2.4 1.12-1.067.32-1.92 1.0667-2.56 2.24-.533 1.0667-.8 2.4-.8 4s.32 3.2.96 4.8l11.36 29.6c.107.32.32.48.64.48s.533-.16.64-.48l10.88-25.6c.427-1.1733.693-2.2933.8-3.36.213-1.1733.32-2.2933.32-3.36 0-1.92-.8-3.5733-2.4-4.96-1.6-1.4933-3.307-2.6133-5.12-3.36-.96-.32-1.813-.6933-2.56-1.12-.64-.4267-.96-1.0667-.96-1.92 0-.64.427-1.0667 1.28-1.28.853-.2133 1.653-.32 2.4-.32 1.92 0 3.893.16 5.92.48 2.027.2133 4.267.32 6.72.32 2.987 0 5.6-.1067 7.84-.32 2.24-.32 4.427-.48 6.56-.48.64 0 1.333.1067 2.08.32.853.2133 1.28.6933 1.28 1.44 0 .7467-.427 1.3333-1.28 1.76-.747.4267-1.547.8-2.4 1.12-1.173.4267-2.293 1.0133-3.36 1.76-.96.7467-1.44 2.0267-1.44 3.84 0 .8533.053 1.76.16 2.72.213.8533.533 1.76.96 2.72l11.2 28.8c.32.853.64 1.28.96 1.28.32 0 .64-.373.96-1.12l11.04-26.4c.427-.96.693-2.0267.8-3.2.213-1.28.32-2.3467.32-3.2 0-1.8133-.587-3.3067-1.76-4.48-1.067-1.28-2.24-2.1333-3.52-2.56-.853-.32-1.707-.6933-2.56-1.12-.747-.4267-1.12-1.0667-1.12-1.92 0-.64.427-1.0667 1.28-1.28.853-.2133 1.547-.32 2.08-.32 2.667 0 4.64.1067 5.92.32 1.387.2133 3.307.32 5.76.32 1.707 0 2.987-.0533 3.84-.16.853-.1067 1.653-.2133 2.4-.32.853-.1067 2.027-.16 3.52-.16.64 0 1.333.1067 2.08.32.853.1067 1.28.5333 1.28 1.28s-.373 1.3867-1.12 1.92c-.64.4267-1.387.8-2.24 1.12-1.813.5333-3.467 1.76-4.96 3.68-1.493 1.92-2.773 4.1067-3.84 6.56l-22.08 53.6c-.427.853-1.067 1.28-1.92 1.28-.64 0-1.227-.427-1.76-1.28l-17.76-42.88c-.213-.64-.48-.96-.8-.96-.32 0-.587.3733-.8 1.12l-17.92 42.72c-.427.96-1.067 1.44-1.92 1.44Zm78.718-3.68c-.854 0-1.6-.16-2.24-.48-.534-.32-.8-.8-.8-1.44 0-.853.32-1.44.96-1.76.746-.427 1.546-.747 2.4-.96 2.453-.64 4.266-1.333 5.44-2.08 1.173-.747 1.76-2.08 1.76-4V76.2c0-3.2-.534-5.76-1.6-7.68-1.067-2.0267-2.934-3.2533-5.6-3.68-.534-.1067-.96-.32-1.28-.64-.214-.4267-.32-1.0133-.32-1.76 0-1.28.48-1.9733 1.44-2.08 4.693-1.0667 8.693-2.4533 12-4.16 3.413-1.8133 5.973-3.2533 7.68-4.32 1.173-.7467 2.026-1.12 2.56-1.12.853 0 1.28.4267 1.28 1.28 0 1.1733-.16 3.04-.48 5.6-.214 2.56-.48 5.3333-.8 8.32-.214 2.9867-.32 5.76-.32 8.32v36.48c0 1.707.586 2.987 1.76 3.84 1.173.853 2.986 1.6 5.44 2.24.853.213 1.6.533 2.24.96.746.32 1.12.907 1.12 1.76 0 1.28-.96 1.92-2.88 1.92-2.027 0-3.84-.107-5.44-.32-1.6-.107-3.147-.213-4.64-.32-1.387-.107-3.04-.16-4.96-.16-1.814 0-3.467.053-4.96.16-1.494.107-2.987.213-4.48.32-1.387.213-3.147.32-5.28.32Zm14.4-81.76c-2.667 0-4.96-.9067-6.88-2.72-1.814-1.92-2.72-4.2133-2.72-6.88 0-2.7733.906-5.0667 2.72-6.88 1.92-1.92 4.213-2.88 6.88-2.88 2.773 0 5.12.96 7.04 2.88 1.92 1.8133 2.88 4.1067 2.88 6.88 0 2.6667-.96 4.96-2.88 6.88-1.92 1.8133-4.267 2.72-7.04 2.72Zm48.111 83.52c-5.867 0-10.4-1.653-13.6-4.96-3.094-3.307-4.64-8.16-4.64-14.56V66.6c0-.8533-.374-1.44-1.12-1.76-.64-.4267-1.974-.64-4-.64h-1.28c-.64 0-1.174-.4267-1.6-1.28-.427-.96-.64-1.8667-.64-2.72 0-.2133.106-.48.32-.8.32-.4267.586-.6933.8-.8 2.24-1.3867 4.426-2.88 6.56-4.48 2.24-1.7067 4.266-3.4133 6.08-5.12 1.92-1.7067 3.52-3.2 4.8-4.48.64-.5333 1.173-1.0133 1.6-1.44.426-.4267.96-.64 1.6-.64.64 0 1.173.16 1.6.48.533.32.746.96.64 1.92l-.96 7.84c-.107 1.28.16 2.1333.8 2.56.746.4267 1.76.64 3.04.64h18.56c.32 0 .64.3733.96 1.12.32.7467.48 1.4933.48 2.24 0 1.1733-.16 2.2933-.48 3.36-.32 1.0667-.694 1.6-1.12 1.6h-15.52c-2.667 0-4.427.2667-5.28.8-.747.5333-1.12 1.76-1.12 3.68v31.04c0 4.48.906 7.947 2.72 10.4 1.813 2.347 4.373 3.52 7.68 3.52 3.093 0 5.44-.267 7.04-.8 1.6-.533 3.04-1.173 4.32-1.92.32-.213.586-.32.8-.32.533 0 .853.267.96.8.213.533.32 1.12.32 1.76 0 .64-.96 1.76-2.88 3.36-1.92 1.6-4.427 3.093-7.52 4.48-3.094 1.493-6.4 2.24-9.92 2.24Zm22.873-1.76c-2.133 0-3.2-.64-3.2-1.92 0-1.067 1.227-2.027 3.68-2.88 1.6-.533 3.094-1.173 4.48-1.92 1.387-.747 2.08-2.24 2.08-4.48V31.4c0-2.88-.426-5.3867-1.28-7.52-.853-2.24-2.666-3.5733-5.44-4-.96-.2133-1.44-1.0133-1.44-2.4 0-1.0667.427-1.76 1.28-2.08 1.814-.5333 3.947-1.1733 6.4-1.92 2.56-.7467 5.067-1.5467 7.52-2.4 2.454-.96 4.534-1.81334 6.24-2.56.64-.21334 1.12-.32001 1.44-.32001.427 0 .747.16.96.48001.214.21333.32.53333.32.95999 0 .53331-.106 1.38671-.32 2.56001-.213 1.0667-.426 2.8267-.64 5.28-.213 2.3467-.32 5.7067-.32 10.08V58.6c0 1.4933.054 2.6667.16 3.52.214.7467.48 1.3867.8 1.92 1.707-1.28 3.734-2.72 6.08-4.32 2.454-1.6 5.174-2.9867 8.16-4.16 3.094-1.1733 6.347-1.76 9.76-1.76 5.44 0 9.92 2.0267 13.44 6.08 3.627 4.0533 5.44 9.3867 5.44 16v34.08c0 2.133.64 3.68 1.92 4.64 1.387.853 2.88 1.547 4.48 2.08 1.067.427 1.92.853 2.56 1.28.64.32.96.853.96 1.6 0 1.28-1.12 1.92-3.36 1.92-2.24 0-4-.107-5.28-.32-1.28-.107-2.506-.213-3.68-.32-1.173-.107-2.773-.16-4.8-.16-2.026 0-3.626.053-4.8.16-1.066.107-2.24.213-3.52.32-1.173.213-2.933.32-5.28.32-2.24 0-3.36-.64-3.36-1.92 0-.853.32-1.44.96-1.76.64-.32 1.494-.693 2.56-1.12 1.494-.427 2.88-1.12 4.16-2.08 1.28-.96 1.92-2.56 1.92-4.8V77.48c0-2.56-.693-4.8533-2.08-6.88-1.386-2.1333-3.093-3.7867-5.12-4.96-1.92-1.1733-3.946-1.76-6.08-1.76-1.92 0-4.106.2667-6.56.8-2.346.5333-4.32 1.44-5.92 2.72-1.386 1.0667-2.346 2.24-2.88 3.52-.426 1.1733-.64 3.1467-.64 5.92v33.44c.107 2.133.747 3.627 1.92 4.48 1.174.747 2.507 1.387 4 1.92 1.067.32 1.92.693 2.56 1.12.64.427.96 1.013.96 1.76 0 1.28-1.066 1.92-3.2 1.92-2.133 0-3.893-.107-5.28-.32-1.28-.107-2.56-.213-3.84-.32-1.173-.107-2.72-.16-4.64-.16-1.813 0-3.413.053-4.8.16-1.28.107-2.666.213-4.16.32-1.386.213-3.146.32-5.28.32Zm110.903.16c-1.173 0-2.187-.16-3.04-.48-.747-.213-1.12-.693-1.12-1.44 0-1.387 1.547-2.4 4.64-3.04 4.053-.747 6.933-1.92 8.64-3.52 1.813-1.6 2.72-4.267 2.72-8V36.2c0-4.48-.64-7.84-1.92-10.08-1.173-2.24-3.733-3.7333-7.68-4.48-1.707-.32-2.933-.7467-3.68-1.28-.747-.5333-1.12-1.1733-1.12-1.92 0-.64.373-1.12 1.12-1.44.853-.4267 1.867-.64 3.04-.64 2.773 0 5.067.0533 6.88.16 1.813 0 3.573.0533 5.28.16 1.707.1067 3.627.16 5.76.16 2.24 0 4.427-.1067 6.56-.32s4.213-.4267 6.24-.64c2.133-.2133 4.267-.32 6.4-.32 12.48 0 22.453 2.6133 29.92 7.84 7.465 5.2267 11.205 12.4267 11.205 21.6 0 6.5067-1.34 12.5333-4 18.08-2.565 5.5467-6.565 10.0267-12.005 13.44-5.44 3.3067-12.373 4.96-20.8 4.96-2.453 0-4.373-.3733-5.76-1.12-1.28-.7467-1.92-1.4933-1.92-2.24 0-.64.32-1.1733.96-1.6.64-.5333 1.227-.8 1.76-.8.747 0 1.6.1067 2.56.32 1.067.1067 2.56.16 4.48.16 5.76 0 10.08-2.6133 12.96-7.84 2.987-5.2267 4.48-12.32 4.48-21.28s-2.24-15.52-6.72-19.68c-4.373-4.2667-10.08-6.4-17.12-6.4-2.987 0-5.387.5867-7.2 1.76-1.707 1.0667-2.56 2.88-2.56 5.44l-.16 75.68c0 3.627.853 6.507 2.56 8.64 1.707 2.027 4.64 3.413 8.8 4.16 1.493.32 2.613.693 3.36 1.12.853.427 1.28 1.067 1.28 1.92 0 .64-.373 1.12-1.12 1.44-.747.32-1.76.48-3.04.48-2.667 0-5.067-.107-7.2-.32-2.027-.107-4-.213-5.92-.32-1.813-.213-3.733-.32-5.76-.32-2.56 0-5.013.107-7.36.32-2.24.107-4.533.213-6.88.32-2.24.213-4.747.32-7.52.32Zm85.165-.16c-.75 0-1.49-.107-2.24-.32-.64-.213-.96-.693-.96-1.44 0-.853.37-1.44 1.12-1.76.75-.427 1.6-.853 2.56-1.28 1.6-.533 3.09-1.12 4.48-1.76 1.39-.64 2.08-2.08 2.08-4.32V31.4c0-3.0933-.53-5.6533-1.6-7.68-.96-2.1333-2.77-3.4667-5.44-4-.85-.2133-1.28-.96-1.28-2.24 0-1.1733.37-1.8667 1.12-2.08 2.77-.5333 5.39-1.2267 7.84-2.08 2.45-.8533 4.75-1.7067 6.88-2.56 2.13-.85334 4.05-1.6 5.76-2.24.64-.21334 1.12-.32001 1.44-.32001.32 0 .53.16.64.48001.21.31999.32.63999.32.95999 0 .85331-.16 2.66671-.48 5.44001-.32 2.7733-.48 6.9333-.48 12.48v83.04c0 2.133.69 3.573 2.08 4.32 1.39.64 2.88 1.227 4.48 1.76.96.32 1.81.693 2.56 1.12.75.427 1.12 1.067 1.12 1.92 0 .64-.37 1.067-1.12 1.28-.64.213-1.33.32-2.08.32-2.03 0-3.79-.053-5.28-.16-1.49-.107-2.93-.213-4.32-.32-1.39-.107-3.04-.16-4.96-.16-1.81 0-3.41.053-4.8.16-1.39.107-2.77.213-4.16.32-1.39.213-3.15.32-5.28.32Zm49.42 1.76c-2.24 0-4.43-.747-6.56-2.24-2.13-1.387-3.89-3.147-5.28-5.28-1.39-2.24-2.08-4.427-2.08-6.56 0-3.52.96-6.347 2.88-8.48 2.03-2.1333 5.12-4.0533 9.28-5.76l15.52-6.56c2.13-.8533 3.41-1.6 3.84-2.24.43-.7467.69-2.1867.8-4.32l.32-9.76c.11-2.88-.59-5.28-2.08-7.2-1.49-1.92-3.68-2.88-6.56-2.88-1.49 0-3.04.32-4.64.96-1.49.5333-2.72 1.1733-3.68 1.92-.53.4267-.91 1.0133-1.12 1.76-.11.7467-.16 1.5467-.16 2.4v1.92c.11.64.16 1.1733.16 1.6 0 .64-.75 1.44-2.24 2.4-1.39.8533-3.04 1.6533-4.96 2.4-1.81.7467-3.36 1.12-4.64 1.12-.64 0-1.17-.16-1.6-.48-.32-.4267-.48-.96-.48-1.6 0-1.7067.53-3.4667 1.6-5.28 1.17-1.92 2.88-3.84 5.12-5.76 2.56-2.24 5.33-4.2133 8.32-5.92 3.09-1.8133 6.08-3.2 8.96-4.16 2.99-.96 5.6-1.44 7.84-1.44 4.48 0 8.11 1.5467 10.88 4.64 2.88 2.9867 4.21 6.88 4 11.68l-.8 36.16c-.11 2.347.37 4.267 1.44 5.76 1.07 1.493 2.4 2.24 4 2.24 2.45 0 4.37-.64 5.76-1.92.43-.427.8-.64 1.12-.64.53 0 .96.16 1.28.48.43.32.64.747.64 1.28 0 1.28-.75 2.613-2.24 4-1.81 1.813-3.79 3.2-5.92 4.16-2.03 1.067-4 1.6-5.92 1.6-5.33 0-9.6-2.88-12.8-8.64h-.48c-3.52 2.987-6.83 5.173-9.92 6.56-3.09 1.387-6.29 2.08-9.6 2.08Zm8.32-8.64c1.81 0 3.31-.267 4.48-.8 1.28-.64 2.4-1.493 3.36-2.56.53-.533.91-1.173 1.12-1.92.32-.853.53-2.133.64-3.84l.32-9.12c.11-1.0667.05-1.8133-.16-2.24-.21-.5333-.64-.8-1.28-.8-.21 0-.53.0533-.96.16-.43.1067-1.01.32-1.76.64-4.8 1.8133-8.16 3.7333-10.08 5.76-1.92 1.92-2.88 4.053-2.88 6.4 0 2.88.75 5.013 2.24 6.4 1.6 1.28 3.25 1.92 4.96 1.92Zm66.01 9.76c-.53 0-1.12-.8-1.76-2.4-.64-1.493-1.17-2.827-1.6-4-.75-1.813-1.55-3.787-2.4-5.92-.75-2.133-1.44-4.107-2.08-5.92-2.45-6.5067-5.07-12.8533-7.84-19.04-2.77-6.1867-5.49-12.48-8.16-18.88-.85-2.1333-2.03-3.9467-3.52-5.44-1.39-1.6-2.93-2.6667-4.64-3.2-.96-.4267-1.71-.8-2.24-1.12-.43-.4267-.64-1.0133-.64-1.76 0-.7467.43-1.1733 1.28-1.28.85-.2133 1.55-.32 2.08-.32 2.35 0 4.05.0533 5.12.16 1.17.1067 2.29.2667 3.36.48 1.17.1067 2.72.16 4.64.16 2.13 0 3.79-.0533 4.96-.16 1.28-.2133 2.56-.3733 3.84-.48 1.39-.1067 3.2-.16 5.44-.16.53 0 1.23.1067 2.08.32.85.2133 1.28.64 1.28 1.28 0 .8533-.37 1.4933-1.12 1.92-.75.32-1.6.6933-2.56 1.12-1.07.4267-1.92 1.2267-2.56 2.4-.53 1.1733-.8 2.56-.8 4.16v2.56c.11.7467.32 1.44.64 2.08l12 31.04c.11.107.16.16.16.16.11 0 .21-.053.32-.16l11.2-29.12c.43-.96.69-1.9733.8-3.04.21-1.1733.32-2.1867.32-3.04 0-2.0267-.37-3.5733-1.12-4.64-.64-1.0667-1.76-1.8667-3.36-2.4-1.28-.4267-2.24-.8-2.88-1.12-.53-.4267-.8-1.0133-.8-1.76 0-.7467.37-1.2267 1.12-1.44.75-.2133 1.49-.32 2.24-.32 1.81.1067 3.57.2667 5.28.48 1.81.1067 3.89.16 6.24.16s4.11-.0533 5.28-.16c1.17-.2133 2.72-.3733 4.64-.48.85 0 1.65.1067 2.4.32s1.12.64 1.12 1.28c0 1.28-1.17 2.2933-3.52 3.04-1.71.5333-3.47 1.76-5.28 3.68-1.81 1.92-3.25 4.2133-4.32 6.88l-12.48 30.56c-.32.533-.8 1.547-1.44 3.04-.53 1.387-1.12 2.933-1.76 4.64-.64 1.6-1.23 3.04-1.76 4.32-.43 1.28-.69 2.027-.8 2.24-.21.32-.59 1.12-1.12 2.4-.53 1.173-1.12 2.4-1.76 3.68-.53 1.387-1.07 2.453-1.6 3.2h-1.92Zm39.06-2.88c-.86 0-1.6-.16-2.24-.48-.64-.32-.96-.8-.96-1.44 0-.853.32-1.44.96-1.76.74-.427 1.65-.8 2.72-1.12 1.6-.427 3.09-1.013 4.48-1.76 1.38-.747 2.08-2.187 2.08-4.32V75.4c0-2.6667-.32-4.9067-.96-6.72-.54-1.92-2.08-3.2-4.64-3.84-.43-.1067-.8-.32-1.12-.64-.32-.4267-.48-.96-.48-1.6 0-1.3867.48-2.1333 1.44-2.24 3.73-.96 7.09-2.1333 10.08-3.52 3.09-1.3867 5.92-2.9333 8.48-4.64.32-.2133.64-.4267.96-.64.42-.2133.8-.32 1.12-.32.42 0 .69.16.8.48.21.2133.32.5333.32.96 0 .7467-.16 2.1867-.48 4.32-.22 2.1333-.32 3.9467-.32 5.44v1.28c.1.4267.21.6933.32.8 3.73-3.52 7.57-6.1867 11.52-8 4.05-1.8133 8.58-2.72 13.6-2.72 5.33 0 9.76 2.08 13.28 6.24 3.52 4.16 5.28 9.5467 5.28 16.16v34.56c0 2.133.69 3.52 2.08 4.16 1.49.64 3.04 1.227 4.64 1.76.85.32 1.65.693 2.4 1.12.74.427 1.12 1.067 1.12 1.92 0 .747-.38 1.227-1.12 1.44-.64.213-1.28.32-1.92.32-2.14 0-3.95-.107-5.44-.32-1.39-.107-2.78-.213-4.16-.32-1.28-.107-2.88-.16-4.8-.16-1.82 0-3.42.053-4.8.16-1.39.107-2.83.213-4.32.32-1.39.213-3.15.32-5.28.32-.54 0-1.18-.107-1.92-.32-.75-.213-1.12-.693-1.12-1.44 0-.853.37-1.493 1.12-1.92.74-.427 1.54-.8 2.4-1.12 1.6-.533 3.09-1.12 4.48-1.76 1.38-.64 2.08-2.027 2.08-4.16V77.64c0-4.48-1.23-7.9467-3.68-10.4-2.35-2.4533-5.44-3.7333-9.28-3.84-3.31 0-6.24.5333-8.8 1.6-2.46.96-4.75 2.2933-6.88 4-.43.4267-.75.96-.96 1.6-.22.64-.32 1.2267-.32 1.76v38.4c0 2.133.69 3.573 2.08 4.32 1.38.64 2.82 1.173 4.32 1.6 2.34.747 3.52 1.707 3.52 2.88 0 .64-.27 1.12-.8 1.44-.54.32-1.28.48-2.24.48-2.14 0-3.95-.107-5.44-.32-1.39-.107-2.72-.213-4-.32-1.18-.107-2.72-.16-4.64-.16-1.82 0-3.42.053-4.8.16-1.39.107-2.83.213-4.32.32-1.5.213-3.31.32-5.44.32Zm94.24 1.76c-2.24 0-4.43-.747-6.56-2.24-2.13-1.387-3.89-3.147-5.28-5.28-1.39-2.24-2.08-4.427-2.08-6.56 0-3.52.96-6.347 2.88-8.48 2.03-2.1333 5.12-4.0533 9.28-5.76l15.52-6.56c2.13-.8533 3.41-1.6 3.84-2.24.43-.7467.69-2.1867.8-4.32l.32-9.76c.11-2.88-.59-5.28-2.08-7.2-1.49-1.92-3.68-2.88-6.56-2.88-1.49 0-3.04.32-4.64.96-1.49.5333-2.72 1.1733-3.68 1.92-.53.4267-.91 1.0133-1.12 1.76-.11.7467-.16 1.5467-.16 2.4v1.92c.11.64.16 1.1733.16 1.6 0 .64-.75 1.44-2.24 2.4-1.39.8533-3.04 1.6533-4.96 2.4-1.81.7467-3.36 1.12-4.64 1.12-.64 0-1.17-.16-1.6-.48-.32-.4267-.48-.96-.48-1.6 0-1.7067.53-3.4667 1.6-5.28 1.17-1.92 2.88-3.84 5.12-5.76 2.56-2.24 5.33-4.2133 8.32-5.92 3.09-1.8133 6.08-3.2 8.96-4.16 2.99-.96 5.6-1.44 7.84-1.44 4.48 0 8.11 1.5467 10.88 4.64 2.88 2.9867 4.21 6.88 4 11.68l-.8 36.16c-.11 2.347.37 4.267 1.44 5.76 1.07 1.493 2.4 2.24 4 2.24 2.45 0 4.37-.64 5.76-1.92.43-.427.8-.64 1.12-.64.53 0 .96.16 1.28.48.43.32.64.747.64 1.28 0 1.28-.75 2.613-2.24 4-1.81 1.813-3.79 3.2-5.92 4.16-2.03 1.067-4 1.6-5.92 1.6-5.33 0-9.6-2.88-12.8-8.64h-.48c-3.52 2.987-6.83 5.173-9.92 6.56-3.09 1.387-6.29 2.08-9.6 2.08Zm8.32-8.64c1.81 0 3.31-.267 4.48-.8 1.28-.64 2.4-1.493 3.36-2.56.53-.533.91-1.173 1.12-1.92.32-.853.53-2.133.64-3.84l.32-9.12c.11-1.0667.05-1.8133-.16-2.24-.21-.5333-.64-.8-1.28-.8-.21 0-.53.0533-.96.16-.43.1067-1.01.32-1.76.64-4.8 1.8133-8.16 3.7333-10.08 5.76-1.92 1.92-2.88 4.053-2.88 6.4 0 2.88.75 5.013 2.24 6.4 1.6 1.28 3.25 1.92 4.96 1.92Z"/>
</svg>