<svg xmlns="http://www.w3.org/2000/svg" viewBox="0 0 1669 167" fill="none">
  <path fill="currentColor" d="M60.16 123.24c-7.1467 0-13.9733-1.227-20.48-3.68-6.4-2.56-12.1067-6.133-17.12-10.72-5.0133-4.693-9.0133-10.24-12-16.64-2.88-6.5067-4.32-13.7067-4.32-21.6 0-7.2533 1.17333-14.1867 3.52-20.8 2.4533-6.72 5.9733-12.6933 10.56-17.92 4.6933-5.2267 10.5067-9.3867 17.44-12.48 6.9333-3.0933 14.88-4.64 23.84-4.64 7.2533 0 14.08 1.28 20.48 3.84 6.5067 2.4533 12.2667 6.0267 17.28 10.72 5.013 4.5867 8.96 10.1333 11.84 16.64 2.987 6.4 4.48 13.5467 4.48 21.44 0 7.1467-1.227 14.08-3.68 20.8-2.347 6.72-5.867 12.693-10.56 17.92-4.5867 5.227-10.3467 9.387-17.28 12.48-6.9333 3.093-14.9333 4.64-24 4.64Zm2.56-6.72c7.4667 0 13.6533-1.707 18.56-5.12 5.0133-3.52 8.7467-8.373 11.2-14.56 2.56-6.1867 3.84-13.3333 3.84-21.44 0-7.1467-.8-13.92-2.4-20.32-1.4933-6.4-3.7867-12.1067-6.88-17.12-3.0933-5.12-6.9867-9.0667-11.68-11.84-4.6933-2.88-10.1867-4.32-16.48-4.32-7.2533 0-13.3867 1.7067-18.4 5.12-4.9067 3.4133-8.64 8.16-11.2 14.24-2.4533 6.08-3.68 13.1733-3.68 21.28 0 7.2533.7467 14.08 2.24 20.48s3.7867 12.16 6.88 17.28c3.0933 5.013 6.9333 9.013 11.52 12 4.6933 2.88 10.1867 4.32 16.48 4.32Zm63.955 4.96c-.64 0-1.387-.107-2.24-.32-.853-.213-1.28-.693-1.28-1.44 0-.853.373-1.493 1.12-1.92.853-.427 1.707-.8 2.56-1.12 1.6-.533 2.933-1.12 4-1.76 1.173-.747 1.76-2.187 1.76-4.32V68.52c0-2.7733-.48-4.5867-1.44-5.44-.96-.96-2.613-1.7067-4.96-2.24-.64-.1067-1.333-.4267-2.08-.96-.64-.64-.96-1.3333-.96-2.08 0-.7467.427-1.3333 1.28-1.76.96-.4267 1.653-.64 2.08-.64 2.347 0 4.32.1067 5.92.32 1.6.1067 3.467.16 5.6.16h46.72c2.133 0 4-.0533 5.6-.16 1.707-.2133 3.787-.32 6.24-.32.427 0 1.067.2133 1.92.64s1.28 1.0133 1.28 1.76c0 .7467-.32 1.44-.96 2.08-.64.5333-1.28.8533-1.92.96-2.347.5333-4.107 1.28-5.28 2.24-1.067.8533-1.6 2.72-1.6 5.6v42.08c0 2.133.533 3.52 1.6 4.16 1.173.64 2.56 1.227 4.16 1.76.853.32 1.653.693 2.4 1.12.747.427 1.12 1.067 1.12 1.92 0 .747-.373 1.227-1.12 1.44-.747.213-1.493.32-2.24.32-2.027 0-3.733-.107-5.12-.32-1.28-.107-2.507-.213-3.68-.32-1.173-.107-2.72-.16-4.64-.16-1.813 0-3.36.053-4.64.16-1.173.107-2.453.213-3.84.32-1.28.213-2.987.32-5.12.32-.64 0-1.387-.107-2.24-.32-.747-.213-1.12-.693-1.12-1.44 0-.853.373-1.493 1.12-1.92.747-.427 1.547-.8 2.4-1.12 1.6-.533 3.04-1.12 4.32-1.76 1.28-.64 1.92-2.027 1.92-4.16V67.72c0-1.28-.213-2.56-.64-3.84-.427-1.3867-1.333-2.08-2.72-2.08h-21.12c-1.387 0-2.347.6933-2.88 2.08-.427 1.28-.64 2.56-.64 3.84v43.04c0 2.133.64 3.52 1.92 4.16 1.28.64 2.72 1.227 4.32 1.76.853.32 1.653.693 2.4 1.12.747.427 1.12 1.067 1.12 1.92 0 .747-.427 1.227-1.28 1.44-.747.213-1.44.32-2.08.32-2.133 0-3.84-.107-5.12-.32-1.28-.107-2.507-.213-3.68-.32-1.067-.107-2.56-.16-4.48-.16-1.813 0-3.36.053-4.64.16-1.28.107-2.613.213-4 .32-1.28.213-2.987.32-5.12.32Zm85.982 44.96c-2.346 0-4.533-.693-6.56-2.08-2.026-1.28-3.04-3.147-3.04-5.6 0-2.027.48-3.84 1.44-5.44.96-1.6 2.4-2.4 4.32-2.4 1.387 0 2.72.16 4 .48 1.387.427 2.614.64 3.68.64 1.067-.107 1.867-.373 2.4-.8.534-.32 1.067-.96 1.6-1.92 1.067-1.707 2.187-3.733 3.36-6.08 1.28-2.24 2.614-4.853 4-7.84 1.387-2.987 2.827-6.347 4.32-10.08.64-1.6.96-3.307.96-5.12 0-1.067-.106-2.08-.32-3.04-.213-.96-.533-1.92-.96-2.88l-18.88-46.08c-.853-2.0267-1.866-3.7867-3.04-5.28-1.173-1.4933-2.666-2.5067-4.48-3.04-.853-.4267-1.653-.8533-2.4-1.28-.64-.4267-.96-1.0667-.96-1.92 0-.64.427-1.0133 1.28-1.12.854-.2133 1.547-.32 2.08-.32 2.347 0 4.16.0533 5.44.16 1.28.1067 2.454.2133 3.52.32 1.067.1067 2.454.16 4.16.16 2.027 0 3.627-.0533 4.8-.16 1.174-.1067 2.4-.2133 3.68-.32 1.387-.1067 3.2-.16 5.44-.16.747 0 1.494.16 2.24.48.747.2133 1.12.64 1.12 1.28 0 .8533-.48 1.6-1.44 2.24-.96.5333-1.866.96-2.72 1.28-1.173.32-2.08.9067-2.72 1.76-.533.7467-.8 1.9733-.8 3.68 0 .7467.16 1.6.48 2.56.32.96.694 1.92 1.12 2.88l11.841 29.28c.213.533.48.8.799.8.214 0 .427-.267.641-.8L253.137 73c.32-.7467.587-1.7067.8-2.88.214-1.28.32-2.3467.32-3.2 0-1.92-.373-3.3067-1.12-4.16-.746-.96-1.6-1.6533-2.56-2.08-.853-.4267-1.813-.9067-2.88-1.44-.96-.64-1.44-1.3867-1.44-2.24 0-.64.374-1.0667 1.12-1.28.854-.32 1.6-.48 2.24-.48 1.92 0 3.68.1067 5.281.32 1.599.2133 3.626.32 6.079.32 1.707 0 3.04-.0533 4-.16.961-.1067 1.867-.2133 2.72-.32.854-.1067 1.974-.16 3.36-.16.534 0 1.227.1067 2.08.32.854.1067 1.281.48 1.281 1.12 0 .8533-.374 1.4933-1.12 1.92-.64.4267-1.387.8533-2.241 1.28-1.706.5333-3.466 1.76-5.28 3.68-1.706 1.92-3.093 4.16-4.159 6.72l-22.561 53.76c-.32.96-1.013 2.667-2.08 5.12-.96 2.453-2.133 5.333-3.52 8.64-1.386 3.307-2.88 6.773-4.48 10.4-1.493 3.733-2.986 7.307-4.48 10.72-1.066 2.453-2.666 4.32-4.8 5.6-2.026 1.28-4.373 1.92-7.04 1.92Zm97.46-43.04c-7.36 0-13.44-1.92-18.24-5.76-4.693-3.84-8.213-8.96-10.56-15.36-2.346-6.5067-3.573-13.6533-3.68-21.44 0-11.3067 1.334-21.4933 4-30.56 2.667-9.0667 6.88-16.5867 12.64-22.56 5.867-5.9733 13.44-9.8133 22.72-11.52l8-1.44c3.2-.5333 5.707-1.12 7.52-1.76 1.92-.64 3.467-1.28 4.64-1.92 1.174-.7467 2.294-1.54667 3.36-2.4.107-.10667.32-.16.64-.16.427 0 .694.26666.8.8.214.42667.32.8.32 1.12 0 2.56-.533 5.2267-1.6 8-1.066 2.6667-2.826 5.0133-5.28 7.04-2.346 2.0267-5.493 3.4133-9.44 4.16l-19.36 3.52c-3.946.7467-7.253 2.08-9.92 4-2.56 1.92-4.426 4.6933-5.6 8.32-1.173 3.6267-1.6 8.4267-1.28 14.4.107.8533.427 1.3333.96 1.44.64.1067 1.334-.1067 2.08-.64 2.134-1.8133 4.8-3.36 8-4.64 3.307-1.28 7.414-1.92 12.32-1.92 6.72 0 12.32 1.6 16.8 4.8 4.48 3.0933 7.84 7.0933 10.08 12s3.36 10.08 3.36 15.52c0 6.2933-1.226 12.2667-3.68 17.92-2.453 5.653-6.133 10.24-11.04 13.76-4.906 3.52-11.093 5.28-18.56 5.28Zm1.12-5.92c4.16 0 7.36-1.173 9.6-3.52 2.347-2.453 3.947-5.813 4.8-10.08.96-4.2667 1.44-9.1733 1.44-14.72 0-4.9067-.693-9.6-2.08-14.08-1.386-4.48-3.36-8.16-5.92-11.04-2.56-2.88-5.6-4.32-9.12-4.32-2.56 0-5.013.5333-7.36 1.6-2.24.96-4.053 2.4533-5.44 4.48-1.493 2.1333-2.506 4.8-3.04 8-.426 3.2-.64 6.9867-.64 11.36.107 5.9733.854 11.4133 2.24 16.32 1.387 4.907 3.414 8.8 6.08 11.68 2.667 2.88 5.814 4.32 9.44 4.32Zm43.685 5.76c-4.16 0-7.253-.907-9.28-2.72-2.026-1.92-3.04-4-3.04-6.24 0-2.027.64-3.787 1.92-5.28 1.28-1.493 2.987-2.24 5.12-2.24 1.28 0 2.4.32 3.36.96.96.533 1.814 1.173 2.56 1.92.64.533 1.227 1.067 1.76 1.6.64.427 1.28.64 1.92.64 1.6 0 2.987-1.387 4.16-4.16 1.28-2.88 2.347-6.56 3.2-11.04.96-4.48 1.707-9.2267 2.24-14.24.534-5.0133.8-9.6.8-13.76 0-2.9867-.8-4.9067-2.4-5.76-1.493-.8533-3.626-1.5467-6.4-2.08-.64-.2133-1.333-.5333-2.08-.96-.746-.5333-1.12-1.2267-1.12-2.08 0-.7467.48-1.3333 1.44-1.76.96-.4267 1.654-.64 2.08-.64 2.347 0 4.32.1067 5.92.32 1.6.1067 3.414.16 5.44.16h31.68c2.347 0 4.32-.0533 5.92-.16 1.6-.2133 3.574-.32 5.92-.32.427 0 1.067.2133 1.92.64.96.4267 1.44 1.0133 1.44 1.76 0 .7467-.32 1.44-.96 2.08-.64.5333-1.28.8533-1.92.96-2.346.5333-4.106 1.3333-5.28 2.4-1.173 1.0667-1.76 3.4667-1.76 7.2v40.32c0 2.133.587 3.52 1.76 4.16 1.174.64 2.56 1.227 4.16 1.76.854.32 1.654.693 2.4 1.12.747.427 1.12 1.067 1.12 1.92 0 .747-.373 1.227-1.12 1.44-.64.213-1.28.32-1.92.32-2.133 0-3.893-.107-5.28-.32-1.386-.107-2.72-.213-4-.32-1.173-.107-2.72-.16-4.64-.16-1.813 0-3.36.053-4.64.16-1.28.107-2.613.213-4 .32-1.386.213-3.093.32-5.12.32-.64 0-1.333-.107-2.08-.32-.64-.213-.96-.693-.96-1.44 0-.853.374-1.493 1.12-1.92.747-.427 1.547-.8 2.4-1.12 1.6-.533 3.04-1.12 4.32-1.76 1.28-.64 1.92-2.027 1.92-4.16v-43.2c0-1.1733-.266-2.4-.8-3.68-.426-1.3867-1.333-2.08-2.72-2.08h-12.32c-1.493 0-2.4.7467-2.72 2.24-.32 1.4933-.48 2.72-.48 3.68 0 4.3733-.266 9.0667-.8 14.08-.426 5.0133-1.173 9.9733-2.24 14.88-.96 4.907-2.24 9.387-3.84 13.44-1.6 3.947-3.573 7.147-5.92 9.6-2.346 2.347-5.066 3.52-8.16 3.52Zm72.454-1.76c-.853 0-1.6-.16-2.24-.48-.533-.32-.8-.8-.8-1.44 0-.853.32-1.44.96-1.76.747-.427 1.547-.747 2.4-.96 2.454-.64 4.267-1.333 5.44-2.08 1.174-.747 1.76-2.08 1.76-4V76.2c0-3.2-.533-5.76-1.6-7.68-1.066-2.0267-2.933-3.2533-5.6-3.68-.533-.1067-.96-.32-1.28-.64-.213-.4267-.32-1.0133-.32-1.76 0-1.28.48-1.9733 1.44-2.08 4.694-1.0667 8.694-2.4533 12-4.16 3.414-1.8133 5.974-3.2533 7.68-4.32 1.174-.7467 2.027-1.12 2.56-1.12.854 0 1.28.4267 1.28 1.28 0 1.1733-.16 3.04-.48 5.6-.213 2.56-.48 5.3333-.8 8.32-.213 2.9867-.32 5.76-.32 8.32v36.48c0 1.707.587 2.987 1.76 3.84 1.174.853 2.987 1.6 5.44 2.24.854.213 1.6.533 2.24.96.747.32 1.12.907 1.12 1.76 0 1.28-.96 1.92-2.88 1.92-2.026 0-3.84-.107-5.44-.32-1.6-.107-3.146-.213-4.64-.32-1.386-.107-3.04-.16-4.96-.16-1.813 0-3.466.053-4.96.16-1.493.107-2.986.213-4.48.32-1.386.213-3.146.32-5.28.32Zm14.4-81.76c-2.666 0-4.96-.9067-6.88-2.72-1.813-1.92-2.72-4.2133-2.72-6.88 0-2.7733.907-5.0667 2.72-6.88 1.92-1.92 4.214-2.88 6.88-2.88 2.774 0 5.12.96 7.04 2.88 1.92 1.8133 2.88 4.1067 2.88 6.88 0 2.6667-.96 4.96-2.88 6.88-1.92 1.8133-4.266 2.72-7.04 2.72Zm87.952 83.52c-3.094 0-5.76-.427-8-1.28-2.134-.853-4.107-2.187-5.92-4-1.814-1.813-3.627-4.053-5.44-6.72-1.707-2.773-3.627-6.027-5.76-9.76-1.707-2.7733-3.147-5.12-4.32-7.04-1.174-1.92-2.454-3.4133-3.84-4.48-1.387-1.1733-3.36-1.76-5.92-1.76-1.067 0-1.6.48-1.6 1.44v21.12c0 2.027.693 3.413 2.08 4.16 1.493.64 3.253 1.28 5.28 1.92.853.32 1.6.693 2.24 1.12.746.32 1.12.907 1.12 1.76 0 .747-.427 1.227-1.28 1.44-.854.213-1.494.32-1.92.32-2.027 0-3.84-.107-5.44-.32-1.494-.107-2.934-.213-4.32-.32-1.387-.107-3.04-.16-4.96-.16-1.814 0-3.414.053-4.8.16-1.387.107-2.827.213-4.32.32-1.387.213-3.147.32-5.28.32-.534 0-1.227-.107-2.08-.32-.854-.213-1.28-.64-1.28-1.28 0-.853.32-1.493.96-1.92.746-.427 1.546-.8 2.4-1.12 2.026-.64 3.733-1.227 5.12-1.76 1.386-.533 2.08-1.867 2.08-4V66.92c0-2.1333-.587-3.7333-1.76-4.8-1.174-1.0667-2.774-1.8667-4.8-2.4-.854-.2133-1.654-.5333-2.4-.96-.64-.5333-.96-1.1733-.96-1.92 0-.8533.426-1.3333 1.28-1.44.853-.2133 1.546-.32 2.08-.32 2.133 0 3.84.0533 5.12.16 1.28.1067 2.56.2667 3.84.48 1.28.1067 2.826.16 4.64.16 1.92 0 3.466-.0533 4.64-.16 1.28-.1067 2.613-.2133 4-.32 1.493-.1067 3.253-.16 5.28-.16.533 0 1.226.0533 2.08.16.853.1067 1.28.5867 1.28 1.44 0 .7467-.374 1.3333-1.12 1.76-.747.4267-1.547.8-2.4 1.12-2.027.64-3.627 1.5467-4.8 2.72-1.067 1.0667-1.6 2.6667-1.6 4.8v14.88c0 .5333.16.96.48 1.28.426.2133.906.32 1.44.32 5.12 0 9.013-1.2267 11.68-3.68 2.773-2.56 5.066-5.44 6.88-8.64 1.28-2.1333 2.453-4.2667 3.52-6.4 1.066-2.24 2.24-4.2667 3.52-6.08 1.28-1.8133 2.826-3.2533 4.64-4.32 1.92-1.0667 4.266-1.6 7.04-1.6 2.773 0 4.853.7467 6.24 2.24 1.493 1.4933 2.24 3.2533 2.24 5.28 0 2.0267-.48 3.68-1.44 4.96-.96 1.1733-2.187 1.76-3.68 1.76-1.28 0-2.774-.3733-4.48-1.12-1.6-.8533-2.987-1.28-4.16-1.28-1.387 0-2.454.32-3.2.96-.64.64-1.387 1.6-2.24 2.88-.534.8533-1.227 2.1333-2.08 3.84-.854 1.6-1.814 3.2533-2.88 4.96-.96 1.6-2.08 2.9333-3.36 4-.427.4267-.587.7467-.48.96.106.1067.266.3733.48.8 1.92 3.0933 3.786 6.24 5.6 9.44 1.813 3.2 3.626 6.2933 5.44 9.28 2.24 3.413 4.586 6.4 7.04 8.96 2.453 2.56 5.066 4.32 7.84 5.28 1.28.32 2.293.747 3.04 1.28.746.533 1.12 1.28 1.12 2.24 0 .853-.907 1.653-2.72 2.4-1.707.747-3.947 1.12-6.72 1.12Zm43.416 0c-6.08 0-11.627-1.387-16.64-4.16-4.907-2.88-8.8-6.773-11.68-11.68-2.88-4.907-4.32-10.5067-4.32-16.8 0-4.6933.906-9.2267 2.72-13.6 1.813-4.3733 4.373-8.32 7.68-11.84 3.306-3.52 7.146-6.2933 11.52-8.32 4.373-2.1333 9.066-3.2 14.08-3.2 6.293 0 12 1.5467 17.12 4.64 5.12 2.9867 9.173 6.9333 12.16 11.84 2.986 4.9067 4.48 10.2933 4.48 16.16 0 6.4-1.387 12.4267-4.16 18.08-2.774 5.653-6.934 10.24-12.48 13.76-5.44 3.413-12.267 5.12-20.48 5.12Zm3.36-5.6c3.093 0 5.866-.587 8.32-1.76 2.453-1.28 4.373-3.2 5.76-5.76 1.28-2.453 2.133-5.44 2.56-8.96.533-3.6267.8-7.3067.8-11.04 0-5.3333-.854-10.3467-2.56-15.04-1.707-4.6933-4.054-8.48-7.04-11.36-2.987-2.88-6.507-4.32-10.56-4.32-2.454 0-4.694.4267-6.72 1.28-1.92.7467-3.68 2.08-5.28 4-2.027 2.4533-3.36 5.6533-4 9.6-.64 3.84-.96 8.0533-.96 12.64 0 5.12.853 10.0267 2.56 14.72 1.706 4.693 4 8.533 6.88 11.52 2.986 2.987 6.4 4.48 10.24 4.48Zm43.367 3.84c-.64 0-1.333-.107-2.08-.32-.746-.213-1.12-.64-1.12-1.28 0-.747.32-1.28.96-1.6.64-.427 1.387-.8 2.24-1.12 1.814-.64 3.36-1.173 4.64-1.6 1.387-.533 2.08-1.92 2.08-4.16V66.92c0-2.4533-.533-4.16-1.6-5.12-1.066-1.0667-2.613-1.8667-4.64-2.4-.853-.2133-1.6-.5333-2.24-.96-.64-.4267-.96-.96-.96-1.6 0-.7467.427-1.1733 1.28-1.28.854-.2133 1.494-.32 1.92-.32 2.347 0 4.107.0533 5.28.16 1.28 0 2.454.1067 3.52.32 1.174.1067 2.667.16 4.48.16 1.6 0 3.04-.0533 4.32-.16 1.28-.2133 2.72-.3733 4.32-.48 1.707-.1067 3.787-.16 6.24-.16 8.747 0 15.52 1.28 20.32 3.84 4.907 2.56 7.36 6.3467 7.36 11.36 0 4.16-1.226 7.5733-3.68 10.24-2.453 2.56-5.493 4.2133-9.12 4.96-.426.1067-.693.2667-.8.48-.106.1067.16.2667.8.48 2.347.32 4.747 1.0667 7.2 2.24 2.56 1.1733 4.694 2.8267 6.4 4.96 1.707 2.1333 2.56 4.8533 2.56 8.16 0 4.693-1.28 8.533-3.84 11.52-2.56 2.88-6.186 4.96-10.88 6.24-4.586 1.28-10.08 1.92-16.48 1.92-1.813 0-4.053-.16-6.72-.48-2.56-.213-5.226-.32-8-.32-2.026 0-4.32.053-6.88.16-2.453.107-4.426.213-5.92.32-1.493.213-1.813.32-.96.32Zm29.6-5.76c4.587 0 8.16-1.173 10.72-3.52 2.56-2.347 3.84-5.547 3.84-9.6 0-5.0133-1.6-8.48-4.8-10.4-3.093-1.92-7.2-2.88-12.32-2.88-1.493 0-2.826.2667-4 .8-1.066.4267-1.6 1.3867-1.6 2.88v14.56c0 2.667.694 4.693 2.08 6.08 1.387 1.387 3.414 2.08 6.08 2.08Zm-3.68-31.52c5.76 0 9.92-1.1733 12.48-3.52 2.56-2.4533 3.84-5.28 3.84-8.48 0-3.4133-1.066-6.1333-3.2-8.16-2.026-2.0267-5.653-3.04-10.88-3.04-2.666 0-4.48.4267-5.44 1.28-.853.7467-1.28 1.92-1.28 3.52v14.56c0 1.7067.48 2.7733 1.44 3.2 1.067.4267 2.08.64 3.04.64Zm55.25 39.04c-2.24 0-4.426-.747-6.56-2.24-2.133-1.387-3.893-3.147-5.28-5.28-1.386-2.24-2.08-4.427-2.08-6.56 0-3.52.96-6.347 2.88-8.48 2.027-2.1333 5.12-4.0533 9.28-5.76l15.52-6.56c2.134-.8533 3.414-1.6 3.84-2.24.427-.7467.694-2.1867.8-4.32l.32-9.76c.107-2.88-.586-5.28-2.08-7.2-1.493-1.92-3.68-2.88-6.56-2.88-1.493 0-3.04.32-4.64.96-1.493.5333-2.72 1.1733-3.68 1.92-.533.4267-.906 1.0133-1.12 1.76-.106.7467-.16 1.5467-.16 2.4v1.92c.107.64.16 1.1733.16 1.6 0 .64-.746 1.44-2.24 2.4-1.386.8533-3.04 1.6533-4.96 2.4-1.813.7467-3.36 1.12-4.64 1.12-.64 0-1.173-.16-1.6-.48-.32-.4267-.48-.96-.48-1.6 0-1.7067.534-3.4667 1.6-5.28 1.174-1.92 2.88-3.84 5.12-5.76 2.56-2.24 5.334-4.2133 8.32-5.92 3.094-1.8133 6.08-3.2 8.96-4.16 2.987-.96 5.6-1.44 7.84-1.44 4.48 0 8.107 1.5467 10.88 4.64 2.88 2.9867 4.214 6.88 4 11.68l-.8 36.16c-.106 2.347.374 4.267 1.44 5.76 1.067 1.493 2.4 2.24 4 2.24 2.454 0 4.374-.64 5.76-1.92.427-.427.8-.64 1.12-.64.534 0 .96.16 1.28.48.427.32.64.747.64 1.28 0 1.28-.746 2.613-2.24 4-1.813 1.813-3.786 3.2-5.92 4.16-2.026 1.067-4 1.6-5.92 1.6-5.333 0-9.6-2.88-12.8-8.64h-.48c-3.52 2.987-6.826 5.173-9.92 6.56-3.093 1.387-6.293 2.08-9.6 2.08Zm8.32-8.64c1.814 0 3.307-.267 4.48-.8 1.28-.64 2.4-1.493 3.36-2.56.534-.533.907-1.173 1.12-1.92.32-.853.534-2.133.64-3.84l.32-9.12c.107-1.0667.054-1.8133-.16-2.24-.213-.5333-.64-.8-1.28-.8-.213 0-.533.0533-.96.16-.426.1067-1.013.32-1.76.64-4.8 1.8133-8.16 3.7333-10.08 5.76-1.92 1.92-2.88 4.053-2.88 6.4 0 2.88.747 5.013 2.24 6.4 1.6 1.28 3.254 1.92 4.96 1.92Zm43.214 6.88c-.64 0-1.387-.107-2.24-.32-.853-.213-1.28-.693-1.28-1.44 0-.853.373-1.493 1.12-1.92.853-.427 1.707-.8 2.56-1.12 1.6-.533 3.04-1.12 4.32-1.76 1.387-.747 2.08-2.187 2.08-4.32V66.28c0-2.1333-.587-3.5733-1.76-4.32-1.173-.8533-2.56-1.4933-4.16-1.92-.853-.32-1.707-.6933-2.56-1.12-.747-.4267-1.12-1.0667-1.12-1.92 0-.7467.427-1.1733 1.28-1.28.853-.2133 1.6-.32 2.24-.32 2.133 0 3.84.0533 5.12.16 1.387.1067 2.72.2667 4 .48 1.28.1067 2.827.16 4.64.16 1.92 0 3.413-.0533 4.48-.16 1.173-.2133 2.4-.3733 3.68-.48 1.28-.1067 2.933-.16 4.96-.16.64 0 1.333.1067 2.08.32.853.2133 1.28.64 1.28 1.28 0 .7467-.373 1.3867-1.12 1.92-.747.4267-1.547.8-2.4 1.12-1.6.5333-2.987 1.1733-4.16 1.92-1.173.7467-1.76 2.1867-1.76 4.32v15.84c0 .8533.32 1.44.96 1.76.64.2133 1.227.32 1.76.32h24.64c.64 0 1.173-.16 1.6-.48.427-.32.64-.96.64-1.92V66.28c0-2.1333-.533-3.5733-1.6-4.32-1.067-.7467-2.4-1.3867-4-1.92-.853-.32-1.653-.6933-2.4-1.12-.747-.4267-1.12-1.0667-1.12-1.92 0-.7467.373-1.1733 1.12-1.28.747-.2133 1.493-.32 2.24-.32 2.133 0 3.84.0533 5.12.16 1.28.1067 2.507.2667 3.68.48 1.173.1067 2.667.16 4.48.16 1.92 0 3.467-.0533 4.64-.16 1.28-.2133 2.56-.3733 3.84-.48 1.387-.1067 3.093-.16 5.12-.16.747 0 1.493.1067 2.24.32.747.1067 1.12.5333 1.12 1.28 0 .8533-.373 1.5467-1.12 2.08-.747.4267-1.547.7467-2.4.96-1.6.4267-3.093 1.0667-4.48 1.92-1.28.7467-1.92 2.1867-1.92 4.32v44.32c0 2.133.693 3.573 2.08 4.32 1.493.64 3.04 1.227 4.64 1.76.853.32 1.653.693 2.4 1.12.747.427 1.12 1.067 1.12 1.92 0 .747-.427 1.227-1.28 1.44-.747.213-1.44.32-2.08.32-2.027 0-3.787-.107-5.28-.32-1.387-.107-2.72-.213-4-.32-1.28-.107-2.88-.16-4.8-.16-1.813 0-3.36.053-4.64.16-1.28.107-2.613.213-4 .32-1.387.213-3.147.32-5.28.32-.64 0-1.387-.107-2.24-.32-.747-.213-1.12-.693-1.12-1.44 0-.853.373-1.493 1.12-1.92.747-.427 1.547-.8 2.4-1.12 1.6-.427 3.04-1.013 4.32-1.76 1.387-.747 2.08-2.187 2.08-4.32V92.36c0-.96-.213-1.5467-.64-1.76-.32-.2133-.8-.32-1.44-.32h-25.6c-.533 0-1.013.16-1.44.48-.32.2133-.48.8-.48 1.76v18.08c0 2.24.693 3.68 2.08 4.32 1.493.64 2.987 1.227 4.48 1.76.853.32 1.653.693 2.4 1.12.747.427 1.12 1.067 1.12 1.92 0 .747-.427 1.227-1.28 1.44-.747.213-1.44.32-2.08.32-2.027 0-3.733-.107-5.12-.32-1.387-.107-2.72-.213-4-.32-1.173-.107-2.72-.16-4.64-.16-1.813 0-3.413.053-4.8.16-1.387.107-2.773.213-4.16.32-1.387.213-3.147.32-5.28.32Zm114.562 1.76c-6.08 0-11.626-1.387-16.64-4.16-4.906-2.88-8.8-6.773-11.68-11.68-2.88-4.907-4.32-10.5067-4.32-16.8 0-4.6933.907-9.2267 2.72-13.6 1.814-4.3733 4.374-8.32 7.68-11.84 3.307-3.52 7.147-6.2933 11.52-8.32 4.374-2.1333 9.067-3.2 14.08-3.2 6.294 0 12 1.5467 17.12 4.64 5.12 2.9867 9.174 6.9333 12.16 11.84 2.987 4.9067 4.48 10.2933 4.48 16.16 0 6.4-1.386 12.4267-4.16 18.08-2.773 5.653-6.933 10.24-12.48 13.76-5.44 3.413-12.266 5.12-20.48 5.12Zm3.36-5.6c3.094 0 5.867-.587 8.32-1.76 2.454-1.28 4.374-3.2 5.76-5.76 1.28-2.453 2.134-5.44 2.56-8.96.534-3.6267.8-7.3067.8-11.04 0-5.3333-.853-10.3467-2.56-15.04-1.706-4.6933-4.053-8.48-7.04-11.36-2.986-2.88-6.506-4.32-10.56-4.32-2.453 0-4.693.4267-6.72 1.28-1.92.7467-3.68 2.08-5.28 4-2.026 2.4533-3.36 5.6533-4 9.6-.64 3.84-.96 8.0533-.96 12.64 0 5.12.854 10.0267 2.56 14.72 1.707 4.693 4 8.533 6.88 11.52 2.987 2.987 6.4 4.48 10.24 4.48Zm75.19 3.84c-.64 0-1.386-.107-2.24-.32-.853-.213-1.28-.693-1.28-1.44 0-.853.374-1.493 1.12-1.92.854-.427 1.707-.8 2.56-1.12 1.6-.533 3.04-1.12 4.32-1.76 1.387-.747 2.08-2.187 2.08-4.32V66.28c0-2.1333-.586-3.5733-1.76-4.32-1.173-.8533-2.56-1.4933-4.16-1.92-.853-.32-1.706-.6933-2.56-1.12-.746-.4267-1.12-1.0667-1.12-1.92 0-.7467.427-1.1733 1.28-1.28.854-.2133 1.6-.32 2.24-.32 2.134 0 3.84.0533 5.12.16 1.387.1067 2.72.2667 4 .48 1.28.1067 2.827.16 4.64.16 1.92 0 3.414-.0533 4.48-.16 1.174-.2133 2.4-.3733 3.68-.48 1.28-.1067 2.934-.16 4.96-.16.64 0 1.334.1067 2.08.32.854.2133 1.28.64 1.28 1.28 0 .7467-.373 1.3867-1.12 1.92-.746.4267-1.546.8-2.4 1.12-1.6.5333-2.986 1.1733-4.16 1.92-1.173.7467-1.76 2.1867-1.76 4.32v15.84c0 .8533.32 1.44.96 1.76.64.2133 1.227.32 1.76.32h24.64c.64 0 1.174-.16 1.6-.48.427-.32.64-.96.64-1.92V66.28c0-2.1333-.533-3.5733-1.6-4.32-1.066-.7467-2.4-1.3867-4-1.92-.853-.32-1.653-.6933-2.4-1.12-.746-.4267-1.12-1.0667-1.12-1.92 0-.7467.374-1.1733 1.12-1.28.747-.2133 1.494-.32 2.24-.32 2.134 0 3.84.0533 5.12.16 1.28.1067 2.507.2667 3.68.48 1.173.1067 2.663.16 4.483.16 1.92 0 3.46-.0533 4.64-.16 1.28-.2133 2.56-.3733 3.84-.48 1.38-.1067 3.09-.16 5.12-.16.74 0 1.49.1067 2.24.32.74.1067 1.12.5333 1.12 1.28 0 .8533-.38 1.5467-1.12 2.08-.75.4267-1.55.7467-2.4.96-1.6.4267-3.1 1.0667-4.48 1.92-1.28.7467-1.92 2.1867-1.92 4.32v44.32c0 2.133.69 3.573 2.08 4.32 1.49.64 3.04 1.227 4.64 1.76.85.32 1.65.693 2.4 1.12.74.427 1.12 1.067 1.12 1.92 0 .747-.43 1.227-1.28 1.44-.75.213-1.44.32-2.08.32-2.03 0-3.79-.107-5.28-.32-1.39-.107-2.72-.213-4-.32-1.28-.107-2.88-.16-4.8-.16-1.82 0-3.36.053-4.643.16-1.28.107-2.613.213-4 .32-1.386.213-3.146.32-5.28.32-.64 0-1.386-.107-2.24-.32-.746-.213-1.12-.693-1.12-1.44 0-.853.374-1.493 1.12-1.92.747-.427 1.547-.8 2.4-1.12 1.6-.427 3.04-1.013 4.32-1.76 1.387-.747 2.08-2.187 2.08-4.32V92.36c0-.96-.213-1.5467-.64-1.76-.32-.2133-.8-.32-1.44-.32h-25.6c-.533 0-1.013.16-1.44.48-.32.2133-.48.8-.48 1.76v18.08c0 2.24.694 3.68 2.08 4.32 1.494.64 2.987 1.227 4.48 1.76.854.32 1.654.693 2.4 1.12.747.427 1.12 1.067 1.12 1.92 0 .747-.426 1.227-1.28 1.44-.746.213-1.44.32-2.08.32-2.026 0-3.733-.107-5.12-.32-1.386-.107-2.72-.213-4-.32-1.173-.107-2.72-.16-4.64-.16-1.813 0-3.413.053-4.8.16-1.386.107-2.773.213-4.16.32-1.386.213-3.146.32-5.28.32Zm96.323 1.76c-2.24 0-4.43-.747-6.56-2.24-2.13-1.387-3.89-3.147-5.28-5.28-1.39-2.24-2.08-4.427-2.08-6.56 0-3.52.96-6.347 2.88-8.48 2.03-2.1333 5.12-4.0533 9.28-5.76l15.52-6.56c2.13-.8533 3.41-1.6 3.84-2.24.43-.7467.69-2.1867.8-4.32l.32-9.76c.11-2.88-.59-5.28-2.08-7.2-1.49-1.92-3.68-2.88-6.56-2.88-1.49 0-3.04.32-4.64.96-1.49.5333-2.72 1.1733-3.68 1.92-.53.4267-.91 1.0133-1.12 1.76-.11.7467-.16 1.5467-.16 2.4v1.92c.11.64.16 1.1733.16 1.6 0 .64-.75 1.44-2.24 2.4-1.39.8533-3.04 1.6533-4.96 2.4-1.81.7467-3.36 1.12-4.64 1.12-.64 0-1.17-.16-1.6-.48-.32-.4267-.48-.96-.48-1.6 0-1.7067.53-3.4667 1.6-5.28 1.17-1.92 2.88-3.84 5.12-5.76 2.56-2.24 5.33-4.2133 8.32-5.92 3.09-1.8133 6.08-3.2 8.96-4.16 2.99-.96 5.6-1.44 7.84-1.44 4.48 0 8.11 1.5467 10.88 4.64 2.88 2.9867 4.21 6.88 4 11.68l-.8 36.16c-.11 2.347.37 4.267 1.44 5.76 1.07 1.493 2.4 2.24 4 2.24 2.45 0 4.37-.64 5.76-1.92.43-.427.8-.64 1.12-.64.53 0 .96.16 1.28.48.43.32.64.747.64 1.28 0 1.28-.75 2.613-2.24 4-1.81 1.813-3.79 3.2-5.92 4.16-2.03 1.067-4 1.6-5.92 1.6-5.33 0-9.6-2.88-12.8-8.64h-.48c-3.52 2.987-6.83 5.173-9.92 6.56-3.09 1.387-6.29 2.08-9.6 2.08Zm8.32-8.64c1.81 0 3.31-.267 4.48-.8 1.28-.64 2.4-1.493 3.36-2.56.53-.533.91-1.173 1.12-1.92.32-.853.53-2.133.64-3.84l.32-9.12c.11-1.0667.05-1.8133-.16-2.24-.21-.5333-.64-.8-1.28-.8-.21 0-.53.0533-.96.16-.43.1067-1.01.32-1.76.64-4.8 1.8133-8.16 3.7333-10.08 5.76-1.92 1.92-2.88 4.053-2.88 6.4 0 2.88.75 5.013 2.24 6.4 1.6 1.28 3.25 1.92 4.96 1.92Zm76.64 7.04c-1.18 0-2.14-.16-2.88-.48-.75-.213-1.12-.693-1.12-1.44 0-1.387 1.54-2.4 4.64-3.04 3.84-.747 6.72-1.92 8.64-3.52 1.92-1.6 2.88-4.213 2.88-7.84V33c0-3.6267-.75-6.1867-2.24-7.68-1.39-1.6-4.11-2.8267-8.16-3.68-3.1-.64-4.64-1.7067-4.64-3.2 0-.7467.37-1.28 1.12-1.6.85-.32 1.86-.48 3.04-.48 2.77 0 5.12.0533 7.04.16 2.02.1067 3.94.2667 5.76.48 1.81.1067 3.78.16 5.92.16h53.12c5.65-.1067 11.94-.16 18.88-.16 2.34 0 4.42-.0533 6.24-.16 1.81-.1067 3.73-.2133 5.76-.32 2.02-.1067 4.37-.16 7.04-.16 1.17 0 2.13.16 2.88.48.85.32 1.28.8533 1.28 1.6 0 1.4933-1.55 2.56-4.64 3.2-3.84.8533-6.62 2.08-8.32 3.68-1.71 1.4933-2.56 4.0533-2.56 7.68v72.32c0 3.627 1.01 6.24 3.04 7.84 2.02 1.6 4.96 2.773 8.8 3.52 3.09.64 4.64 1.653 4.64 3.04 0 .747-.43 1.227-1.28 1.44-.75.32-1.71.48-2.88.48-2.67 0-5.07-.107-7.2-.32-2.14-.107-4.22-.213-6.24-.32-2.03-.107-4.22-.16-6.56-.16-2.46 0-4.86.053-7.2.16-2.24.107-4.54.213-6.88.32-2.35.213-4.91.32-7.68.32-1.18 0-2.14-.16-2.88-.48-.75-.32-1.12-.8-1.12-1.44 0-.853.37-1.493 1.12-1.92.74-.427 1.92-.8 3.52-1.12 4.05-.853 6.98-2.187 8.8-4 1.92-1.813 2.93-4.32 3.04-7.52.32-13.0133.42-26.1867.32-39.52 0-13.3333-.11-26.5067-.32-39.52 0-.64-.16-1.0667-.48-1.28-.32-.2133-.7-.32-1.12-.32-3.63-.1067-6.94-.2133-9.92-.32-2.99-.1067-5.82-.16-8.48-.16-2.67-.1067-5.55-.16-8.64-.16-3.84 0-7.58.0533-11.2.16-3.52.1067-7.63.2667-12.32.48-.86 0-1.34.64-1.44 1.92-.64 13.0133-.91 26.1333-.8 39.36.1 13.2267.37 26.3467.8 39.36.21 3.2 1.28 5.707 3.2 7.52 1.92 1.813 4.85 3.147 8.8 4 1.6.32 2.77.693 3.52 1.12.74.427 1.12 1.067 1.12 1.92 0 .64-.38 1.12-1.12 1.44-.64.32-1.6.48-2.88.48-2.67 0-5.12-.107-7.36-.32-2.24-.107-4.43-.213-6.56-.32-2.03-.107-4.22-.16-6.56-.16-2.46 0-4.8.053-7.04.16-2.24.107-4.54.213-6.88.32-2.24.213-4.7.32-7.36.32Zm132.06 1.6c-4.16 0-7.25-.907-9.28-2.72-2.02-1.92-3.04-4-3.04-6.24 0-2.027.64-3.787 1.92-5.28 1.28-1.493 2.99-2.24 5.12-2.24 1.28 0 2.4.32 3.36.96.96.533 1.82 1.173 2.56 1.92.64.533 1.23 1.067 1.76 1.6.64.427 1.28.64 1.92.64 1.6 0 2.99-1.387 4.16-4.16 1.28-2.88 2.35-6.56 3.2-11.04.96-4.48 1.71-9.2267 2.24-14.24.54-5.0133.8-9.6.8-13.76 0-2.9867-.8-4.9067-2.4-5.76-1.49-.8533-3.62-1.5467-6.4-2.08-.64-.2133-1.33-.5333-2.08-.96-.74-.5333-1.12-1.2267-1.12-2.08 0-.7467.48-1.3333 1.44-1.76.96-.4267 1.66-.64 2.08-.64 2.35 0 4.32.1067 5.92.32 1.6.1067 3.42.16 5.44.16h31.68c2.35 0 4.32-.0533 5.92-.16 1.6-.2133 3.58-.32 5.92-.32.43 0 1.07.2133 1.92.64.96.4267 1.44 1.0133 1.44 1.76 0 .7467-.32 1.44-.96 2.08-.64.5333-1.28.8533-1.92.96-2.34.5333-4.1 1.3333-5.28 2.4-1.17 1.0667-1.76 3.4667-1.76 7.2v40.32c0 2.133.59 3.52 1.76 4.16 1.18.64 2.56 1.227 4.16 1.76.86.32 1.66.693 2.4 1.12.75.427 1.12 1.067 1.12 1.92 0 .747-.37 1.227-1.12 1.44-.64.213-1.28.32-1.92.32-2.13 0-3.89-.107-5.28-.32-1.38-.107-2.72-.213-4-.32-1.17-.107-2.72-.16-4.64-.16-1.81 0-3.36.053-4.64.16-1.28.107-2.61.213-4 .32-1.38.213-3.09.32-5.12.32-.64 0-1.33-.107-2.08-.32-.64-.213-.96-.693-.96-1.44 0-.853.38-1.493 1.12-1.92.75-.427 1.55-.8 2.4-1.12 1.6-.533 3.04-1.12 4.32-1.76 1.28-.64 1.92-2.027 1.92-4.16v-43.2c0-1.1733-.26-2.4-.8-3.68-.42-1.3867-1.33-2.08-2.72-2.08h-12.32c-1.49 0-2.4.7467-2.72 2.24-.32 1.4933-.48 2.72-.48 3.68 0 4.3733-.26 9.0667-.8 14.08-.42 5.0133-1.17 9.9733-2.24 14.88-.96 4.907-2.24 9.387-3.84 13.44-1.6 3.947-3.57 7.147-5.92 9.6-2.34 2.347-5.06 3.52-8.16 3.52Zm85.1 0c-2.24 0-4.43-.747-6.56-2.24-2.13-1.387-3.89-3.147-5.28-5.28-1.39-2.24-2.08-4.427-2.08-6.56 0-3.52.96-6.347 2.88-8.48 2.03-2.1333 5.12-4.0533 9.28-5.76l15.52-6.56c2.13-.8533 3.41-1.6 3.84-2.24.43-.7467.69-2.1867.8-4.32l.32-9.76c.11-2.88-.59-5.28-2.08-7.2-1.49-1.92-3.68-2.88-6.56-2.88-1.49 0-3.04.32-4.64.96-1.49.5333-2.72 1.1733-3.68 1.92-.53.4267-.91 1.0133-1.12 1.76-.11.7467-.16 1.5467-.16 2.4v1.92c.11.64.16 1.1733.16 1.6 0 .64-.75 1.44-2.24 2.4-1.39.8533-3.04 1.6533-4.96 2.4-1.81.7467-3.36 1.12-4.64 1.12-.64 0-1.17-.16-1.6-.48-.32-.4267-.48-.96-.48-1.6 0-1.7067.53-3.4667 1.6-5.28 1.17-1.92 2.88-3.84 5.12-5.76 2.56-2.24 5.33-4.2133 8.32-5.92 3.09-1.8133 6.08-3.2 8.96-4.16 2.99-.96 5.6-1.44 7.84-1.44 4.48 0 8.11 1.5467 10.88 4.64 2.88 2.9867 4.21 6.88 4 11.68l-.8 36.16c-.11 2.347.37 4.267 1.44 5.76 1.07 1.493 2.4 2.24 4 2.24 2.45 0 4.37-.64 5.76-1.92.43-.427.8-.64 1.12-.64.53 0 .96.16 1.28.48.43.32.64.747.64 1.28 0 1.28-.75 2.613-2.24 4-1.81 1.813-3.79 3.2-5.92 4.16-2.03 1.067-4 1.6-5.92 1.6-5.33 0-9.6-2.88-12.8-8.64h-.48c-3.52 2.987-6.83 5.173-9.92 6.56-3.09 1.387-6.29 2.08-9.6 2.08Zm8.32-8.64c1.81 0 3.31-.267 4.48-.8 1.28-.64 2.4-1.493 3.36-2.56.53-.533.91-1.173 1.12-1.92.32-.853.53-2.133.64-3.84l.32-9.12c.11-1.0667.05-1.8133-.16-2.24-.21-.5333-.64-.8-1.28-.8-.21 0-.53.0533-.96.16-.43.1067-1.01.32-1.76.64-4.8 1.8133-8.16 3.7333-10.08 5.76-1.92 1.92-2.88 4.053-2.88 6.4 0 2.88.75 5.013 2.24 6.4 1.6 1.28 3.25 1.92 4.96 1.92Zm43.05 6.88c-.64 0-1.33-.107-2.08-.32-.74-.213-1.12-.64-1.12-1.28 0-.747.32-1.28.96-1.6.64-.427 1.39-.8 2.24-1.12 1.82-.64 3.36-1.173 4.64-1.6 1.39-.533 2.08-1.92 2.08-4.16V66.92c0-2.4533-.53-4.16-1.6-5.12-1.06-1.0667-2.61-1.8667-4.64-2.4-.85-.2133-1.6-.5333-2.24-.96-.64-.4267-.96-.96-.96-1.6 0-.7467.43-1.1733 1.28-1.28.86-.2133 1.5-.32 1.92-.32 2.35 0 4.11.0533 5.28.16 1.28 0 2.46.1067 3.52.32 1.18.1067 2.67.16 4.48.16 1.6 0 3.04-.0533 4.32-.16 1.28-.2133 2.72-.3733 4.32-.48 1.71-.1067 3.79-.16 6.24-.16 8.75 0 15.52 1.28 20.32 3.84 4.91 2.56 7.36 6.3467 7.36 11.36 0 4.16-1.22 7.5733-3.68 10.24-2.45 2.56-5.49 4.2133-9.12 4.96-.42.1067-.69.2667-.8.48-.1.1067.16.2667.8.48 2.35.32 4.75 1.0667 7.2 2.24 2.56 1.1733 4.7 2.8267 6.4 4.96 1.71 2.1333 2.56 4.8533 2.56 8.16 0 4.693-1.28 8.533-3.84 11.52-2.56 2.88-6.18 4.96-10.88 6.24-4.58 1.28-10.08 1.92-16.48 1.92-1.81 0-4.05-.16-6.72-.48-2.56-.213-5.22-.32-8-.32-2.02 0-4.32.053-6.88.16-2.45.107-4.42.213-5.92.32-1.49.213-1.81.32-.96.32Zm29.6-5.76c4.59 0 8.16-1.173 10.72-3.52 2.56-2.347 3.84-5.547 3.84-9.6 0-5.0133-1.6-8.48-4.8-10.4-3.09-1.92-7.2-2.88-12.32-2.88-1.49 0-2.82.2667-4 .8-1.06.4267-1.6 1.3867-1.6 2.88v14.56c0 2.667.7 4.693 2.08 6.08 1.39 1.387 3.42 2.08 6.08 2.08Zm-3.68-31.52c5.76 0 9.92-1.1733 12.48-3.52 2.56-2.4533 3.84-5.28 3.84-8.48 0-3.4133-1.06-6.1333-3.2-8.16-2.02-2.0267-5.65-3.04-10.88-3.04-2.66 0-4.48.4267-5.44 1.28-.85.7467-1.28 1.92-1.28 3.52v14.56c0 1.7067.48 2.7733 1.44 3.2 1.07.4267 2.08.64 3.04.64Zm43.09 37.28c-.64 0-1.38-.107-2.24-.32-.85-.213-1.28-.693-1.28-1.44 0-.853.38-1.493 1.12-1.92.86-.427 1.71-.8 2.56-1.12 1.6-.533 3.04-1.12 4.32-1.76 1.39-.747 2.08-2.187 2.08-4.32V66.28c0-2.1333-.58-3.5733-1.76-4.32-1.17-.8533-2.56-1.4933-4.16-1.92-.85-.32-1.7-.6933-2.56-1.12-.74-.4267-1.12-1.0667-1.12-1.92 0-.7467.43-1.1733 1.28-1.28.86-.2133 1.6-.32 2.24-.32 2.14 0 3.84.0533 5.12.16 1.39.1067 2.72.2667 4 .48 1.28.1067 2.83.16 4.64.16 1.92 0 3.42-.0533 4.48-.16 1.18-.2133 2.4-.3733 3.68-.48 1.28-.1067 2.94-.16 4.96-.16.64 0 1.34.1067 2.08.32.86.2133 1.28.64 1.28 1.28 0 .7467-.37 1.3867-1.12 1.92-.74.4267-1.54.8-2.4 1.12-1.6.5333-2.98 1.1733-4.16 1.92-1.17.7467-1.76 2.1867-1.76 4.32v15.84c0 .8533.32 1.44.96 1.76.64.2133 1.23.32 1.76.32h24.64c.64 0 1.18-.16 1.6-.48.43-.32.64-.96.64-1.92V66.28c0-2.1333-.53-3.5733-1.6-4.32-1.06-.7467-2.4-1.3867-4-1.92-.85-.32-1.65-.6933-2.4-1.12-.74-.4267-1.12-1.0667-1.12-1.92 0-.7467.38-1.1733 1.12-1.28.75-.2133 1.5-.32 2.24-.32 2.14 0 3.84.0533 5.12.16 1.28.1067 2.51.2667 3.68.48 1.18.1067 2.67.16 4.48.16 1.92 0 3.47-.0533 4.64-.16 1.28-.2133 2.56-.3733 3.84-.48 1.39-.1067 3.1-.16 5.12-.16.75 0 1.5.1067 2.24.32.75.1067 1.12.5333 1.12 1.28 0 .8533-.37 1.5467-1.12 2.08-.74.4267-1.54.7467-2.4.96-1.6.4267-3.09 1.0667-4.48 1.92-1.28.7467-1.92 2.1867-1.92 4.32v44.32c0 2.133.7 3.573 2.08 4.32 1.5.64 3.04 1.227 4.64 1.76.86.32 1.66.693 2.4 1.12.75.427 1.12 1.067 1.12 1.92 0 .747-.42 1.227-1.28 1.44-.74.213-1.44.32-2.08.32-2.02 0-3.78-.107-5.28-.32-1.38-.107-2.72-.213-4-.32-1.28-.107-2.88-.16-4.8-.16-1.81 0-3.36.053-4.64.16-1.28.107-2.61.213-4 .32-1.38.213-3.14.32-5.28.32-.64 0-1.38-.107-2.24-.32-.74-.213-1.12-.693-1.12-1.44 0-.853.38-1.493 1.12-1.92.75-.427 1.55-.8 2.4-1.12 1.6-.427 3.04-1.013 4.32-1.76 1.39-.747 2.08-2.187 2.08-4.32V92.36c0-.96-.21-1.5467-.64-1.76-.32-.2133-.8-.32-1.44-.32h-25.6c-.53 0-1.01.16-1.44.48-.32.2133-.48.8-.48 1.76v18.08c0 2.24.7 3.68 2.08 4.32 1.5.64 2.99 1.227 4.48 1.76.86.32 1.66.693 2.4 1.12.75.427 1.12 1.067 1.12 1.92 0 .747-.42 1.227-1.28 1.44-.74.213-1.44.32-2.08.32-2.02 0-3.73-.107-5.12-.32-1.38-.107-2.72-.213-4-.32-1.17-.107-2.72-.16-4.64-.16-1.81 0-3.41.053-4.8.16-1.38.107-2.77.213-4.16.32-1.38.213-3.14.32-5.28.32Zm83.68 0c-.85 0-1.6-.16-2.24-.48-.53-.32-.8-.8-.8-1.44 0-.853.32-1.44.96-1.76.75-.427 1.55-.747 2.4-.96 2.46-.64 4.27-1.333 5.44-2.08 1.18-.747 1.76-2.08 1.76-4V76.2c0-3.2-.53-5.76-1.6-7.68-1.06-2.0267-2.93-3.2533-5.6-3.68-.53-.1067-.96-.32-1.28-.64-.21-.4267-.32-1.0133-.32-1.76 0-1.28.48-1.9733 1.44-2.08 4.7-1.0667 8.7-2.4533 12-4.16 3.42-1.8133 5.98-3.2533 7.68-4.32 1.18-.7467 2.03-1.12 2.56-1.12.86 0 1.28.4267 1.28 1.28 0 1.1733-.16 3.04-.48 5.6-.21 2.56-.48 5.3333-.8 8.32-.21 2.9867-.32 5.76-.32 8.32v36.48c0 1.707.59 2.987 1.76 3.84 1.18.853 2.99 1.6 5.44 2.24.86.213 1.6.533 2.24.96.75.32 1.12.907 1.12 1.76 0 1.28-.96 1.92-2.88 1.92-2.02 0-3.84-.107-5.44-.32-1.6-.107-3.14-.213-4.64-.32-1.38-.107-3.04-.16-4.96-.16-1.81 0-3.46.053-4.96.16-1.49.107-2.98.213-4.48.32-1.38.213-3.14.32-5.28.32Zm14.4-81.76c-2.66 0-4.96-.9067-6.88-2.72-1.81-1.92-2.72-4.2133-2.72-6.88 0-2.7733.91-5.0667 2.72-6.88 1.92-1.92 4.22-2.88 6.88-2.88 2.78 0 5.12.96 7.04 2.88 1.92 1.8133 2.88 4.1067 2.88 6.88 0 2.6667-.96 4.96-2.88 6.88-1.92 1.8133-4.26 2.72-7.04 2.72Zm25.56 81.76c-.64 0-1.34-.107-2.08-.32-.75-.213-1.12-.693-1.12-1.44 0-.853.37-1.493 1.12-1.92.85-.427 1.7-.8 2.56-1.12 1.6-.533 3.04-1.12 4.32-1.76 1.38-.747 2.08-2.187 2.08-4.32V66.28c0-2.1333-.64-3.5733-1.92-4.32-1.18-.8533-2.56-1.4933-4.16-1.92-.86-.32-1.71-.6933-2.56-1.12-.75-.4267-1.12-1.0667-1.12-1.92 0-.64.37-1.0667 1.12-1.28.85-.2133 1.54-.32 2.08-.32 2.13 0 3.89.0533 5.28.16 1.49.1067 2.88.2667 4.16.48 1.28.1067 2.82.16 4.64.16 1.92 0 3.46-.0533 4.64-.16 1.17-.2133 2.4-.3733 3.68-.48 1.38-.1067 3.14-.16 5.28-.16.53 0 1.17.1067 1.92.32.74.2133 1.12.64 1.12 1.28 0 .7467-.38 1.3867-1.12 1.92-.75.4267-1.55.8-2.4 1.12-1.6.5333-2.99 1.1733-4.16 1.92-1.18.7467-1.76 2.1867-1.76 4.32v30.24c0 .64.21 1.0667.64 1.28.42.2133.8.16 1.12-.16l27.68-29.6c.32-.4267.53-.7467.64-.96.21-.2133.32-.5867.32-1.12 0-2.1333-.54-3.52-1.6-4.16-.96-.7467-2.24-1.3333-3.84-1.76-.86-.32-1.66-.6933-2.4-1.12-.75-.4267-1.12-1.0667-1.12-1.92 0-.64.32-1.0667.96-1.28.74-.2133 1.44-.32 2.08-.32 2.13 0 3.84.0533 5.12.16 1.38.1067 2.66.2667 3.84.48 1.28.1067 2.82.16 4.64.16 1.92 0 3.46-.0533 4.64-.16 1.28-.2133 2.61-.3733 4-.48 1.38-.1067 3.14-.16 5.28-.16.64 0 1.28.1067 1.92.32.74.2133 1.12.64 1.12 1.28 0 .8533-.38 1.4933-1.12 1.92-.75.4267-1.55.8-2.4 1.12-1.6.4267-3.1 1.0667-4.48 1.92-1.28.7467-1.92 2.1867-1.92 4.32v44.32c0 2.133.69 3.573 2.08 4.32 1.49.64 3.04 1.227 4.64 1.76.85.32 1.65.693 2.4 1.12.74.427 1.12 1.067 1.12 1.92 0 .747-.38 1.227-1.12 1.44-.75.213-1.39.32-1.92.32-2.14 0-3.95-.107-5.44-.32-1.39-.107-2.78-.213-4.16-.32-1.28-.107-2.88-.16-4.8-.16-1.82 0-3.42.053-4.8.16-1.28.107-2.67.213-4.16.32-1.39.213-3.15.32-5.28.32-.54 0-1.18-.107-1.92-.32-.75-.213-1.12-.693-1.12-1.44 0-.853.37-1.493 1.12-1.92.74-.427 1.54-.8 2.4-1.12 1.6-.533 3.04-1.12 4.32-1.76 1.28-.747 1.92-2.187 1.92-4.32V77.64c0-.5333-.11-.8533-.32-.96-.11-.2133-.27-.16-.48.16l-28.64 31.04c-.64.64-.96 1.547-.96 2.72 0 2.24.69 3.68 2.08 4.32 1.38.64 2.88 1.227 4.48 1.76.85.32 1.65.693 2.4 1.12.74.427 1.12 1.067 1.12 1.92 0 .64-.38 1.067-1.12 1.28-.75.32-1.39.48-1.92.48-2.14 0-3.95-.107-5.44-.32-1.39-.107-2.72-.213-4-.32-1.28-.107-2.88-.16-4.8-.16-1.82 0-3.42.053-4.8.16-1.39.107-2.83.213-4.32.32-1.39.213-3.15.32-5.28.32Zm36.48-76c-3.74 0-7.1-.5867-10.08-1.76-2.88-1.28-5.18-3.04-6.88-5.28-1.6-2.3467-2.4-4.96-2.4-7.84 0-2.9867.64-5.2267 1.92-6.72 1.28-1.6 2.82-2.4 4.64-2.4 1.92 0 3.3.48 4.16 1.44.96.8533 1.44 1.9733 1.44 3.36 0 .96-.06 1.8133-.16 2.56v2.24c0 1.92.96 3.5733 2.88 4.96 2.02 1.28 4.42 1.92 7.2 1.92 2.45 0 4.9-.8 7.36-2.4 2.56-1.6 4.53-4.4267 5.92-8.48.64-1.7067 1.12-2.7733 1.44-3.2.32-.5333.74-.8 1.28-.8.85 0 1.28.8533 1.28 2.56 0 4.16-.96 7.7333-2.88 10.72-1.82 2.88-4.27 5.12-7.36 6.72-2.99 1.6-6.24 2.4-9.76 2.4Z"/>
</svg>